<?xml version="1.0" encoding="UTF-8" standalone="no"?>
<svg
   width="700pt"
   height="700pt"
   version="1.1"
   viewBox="0 0 700 700"
   id="svg1728"
   sodipodi:docname="coding.svg"
   inkscape:version="1.2.2 (732a01da63, 2022-12-09)"
   xmlns:inkscape="http://www.inkscape.org/namespaces/inkscape"
   xmlns:sodipodi="http://sodipodi.sourceforge.net/DTD/sodipodi-0.dtd"
   xmlns="http://www.w3.org/2000/svg"
   xmlns:svg="http://www.w3.org/2000/svg">
  <sodipodi:namedview
     id="namedview1730"
     pagecolor="#ffffff"
     bordercolor="#000000"
     borderopacity="0.25"
     inkscape:showpageshadow="2"
     inkscape:pageopacity="0.0"
     inkscape:pagecheckerboard="0"
     inkscape:deskcolor="#d1d1d1"
     inkscape:document-units="pt"
     showgrid="false"
     inkscape:zoom="0.86142857"
     inkscape:cx="466.66667"
     inkscape:cy="297.76119"
     inkscape:window-width="1920"
     inkscape:window-height="991"
     inkscape:window-x="-9"
     inkscape:window-y="-9"
     inkscape:window-maximized="1"
     inkscape:current-layer="svg1728" />
  <defs
     id="defs1636">
    <symbol
       id="g"
       overflow="visible">
      <path
         d="m28.422-1.7031c-1.4688 0.76172-3 1.3359-4.5938 1.7188-1.5859 0.38281-3.2344 0.57812-4.9531 0.57812-5.1562 0-9.2422-1.4375-12.25-4.3125-3.0117-2.875-4.5156-6.7812-4.5156-11.719s1.5039-8.8438 4.5156-11.719c3.0078-2.8828 7.0938-4.3281 12.25-4.3281 1.7188 0 3.3672 0.19531 4.9531 0.57812 1.5938 0.38672 3.125 0.96094 4.5938 1.7188v6.4062c-1.4805-1.0078-2.9375-1.75-4.375-2.2188s-2.9492-0.70312-4.5312-0.70312c-2.8438 0-5.0859 0.91406-6.7188 2.7344-1.625 1.8242-2.4375 4.3359-2.4375 7.5312 0 3.1992 0.8125 5.7109 2.4375 7.5312 1.6328 1.8242 3.875 2.7344 6.7188 2.7344 1.582 0 3.0938-0.23438 4.5312-0.70312 1.4375-0.47656 2.8945-1.2188 4.375-2.2188z"
         id="path1582" />
    </symbol>
    <symbol
       id="i"
       overflow="visible">
      <path
         d="m20.797-16.875c-0.64844-0.3125-1.293-0.53516-1.9375-0.67188-0.64844-0.14453-1.293-0.21875-1.9375-0.21875-1.9062 0-3.375 0.60938-4.4062 1.8281-1.0234 1.2188-1.5312 2.9688-1.5312 5.25v10.688h-7.4219v-23.203h7.4219v3.8125c0.94531-1.5195 2.0352-2.6289 3.2656-3.3281 1.2383-0.69531 2.7227-1.0469 4.4531-1.0469 0.25 0 0.51953 0.011719 0.8125 0.03125 0.28906 0.023437 0.71094 0.070313 1.2656 0.14062z"
         id="path1585" />
    </symbol>
    <symbol
       id="b"
       overflow="visible">
      <path
         d="m26.719-11.656v2.1094h-17.328c0.17578 1.7422 0.80078 3.0469 1.875 3.9219 1.082 0.86719 2.5859 1.2969 4.5156 1.2969 1.5625 0 3.1602-0.22656 4.7969-0.6875 1.6328-0.46875 3.3164-1.1719 5.0469-2.1094v5.7188c-1.75 0.65625-3.5078 1.1523-5.2656 1.4844-1.75 0.34375-3.5078 0.51562-5.2656 0.51562-4.1992 0-7.4609-1.0625-9.7812-3.1875-2.3242-2.1328-3.4844-5.1289-3.4844-8.9844 0-3.7812 1.1406-6.7539 3.4219-8.9219 2.2812-2.1758 5.4258-3.2656 9.4375-3.2656 3.6445 0 6.5625 1.1016 8.75 3.2969 2.1875 2.1992 3.2812 5.1367 3.2812 8.8125zm-7.625-2.4688c0-1.4062-0.41406-2.5391-1.2344-3.4062-0.8125-0.86328-1.8867-1.2969-3.2188-1.2969-1.4375 0-2.6055 0.40625-3.5 1.2188-0.89844 0.80469-1.4531 1.9648-1.6719 3.4844z"
         id="path1588" />
    </symbol>
    <symbol
       id="f"
       overflow="visible">
      <path
         d="m13.969-10.438c-1.5547 0-2.7188 0.26562-3.5 0.79688-0.78125 0.52344-1.1719 1.293-1.1719 2.3125 0 0.9375 0.3125 1.6719 0.9375 2.2031 0.63281 0.53125 1.5078 0.79688 2.625 0.79688 1.3945 0 2.5664-0.5 3.5156-1.5 0.95703-1 1.4375-2.2539 1.4375-3.7656v-0.84375zm11.328-2.7969v13.234h-7.4844v-3.4375c-0.99219 1.4062-2.1094 2.4336-3.3594 3.0781-1.2422 0.63281-2.75 0.95312-4.5312 0.95312-2.4062 0-4.3594-0.69531-5.8594-2.0938-1.4922-1.4062-2.2344-3.2227-2.2344-5.4531 0-2.7266 0.92969-4.7266 2.7969-6 1.875-1.2695 4.8125-1.9062 8.8125-1.9062h4.375v-0.57812c0-1.1641-0.46484-2.0195-1.3906-2.5625-0.92969-0.55078-2.3711-0.82812-4.3281-0.82812-1.5859 0-3.0625 0.16406-4.4375 0.48438-1.3672 0.3125-2.6328 0.78906-3.7969 1.4219v-5.6562c1.582-0.38281 3.1758-0.67578 4.7812-0.875 1.6016-0.20703 3.2031-0.3125 4.7969-0.3125 4.1875 0 7.207 0.82812 9.0625 2.4844 1.8633 1.6484 2.7969 4.3281 2.7969 8.0469z"
         id="path1591" />
    </symbol>
    <symbol
       id="a"
       overflow="visible">
      <path
         d="m11.656-29.781v6.5781h7.6562v5.3125h-7.6562v9.8281c0 1.0859 0.21094 1.8203 0.64062 2.2031 0.4375 0.375 1.2891 0.5625 2.5625 0.5625h3.7969v5.2969h-6.3594c-2.9297 0-5-0.60938-6.2188-1.8281-1.2188-1.2266-1.8281-3.3047-1.8281-6.2344v-9.8281h-3.6875v-5.3125h3.6875v-6.5781z"
         id="path1594" />
    </symbol>
    <symbol
       id="e"
       overflow="visible">
      <path
         d="m19.344-19.797v-12.438h7.4531v32.234h-7.4531v-3.3594c-1.0234 1.3672-2.1484 2.3672-3.375 3-1.2305 0.63281-2.6523 0.95312-4.2656 0.95312-2.8555 0-5.2031-1.1328-7.0469-3.4062-1.8359-2.2695-2.75-5.1914-2.75-8.7656 0-3.5703 0.91406-6.4922 2.75-8.7656 1.8438-2.2812 4.1914-3.4219 7.0469-3.4219 1.6016 0 3.0195 0.32422 4.25 0.96875 1.2383 0.64844 2.3672 1.6484 3.3906 3zm-4.8906 15.016c1.5938 0 2.8047-0.57812 3.6406-1.7344 0.83203-1.1641 1.25-2.8516 1.25-5.0625 0-2.207-0.41797-3.8906-1.25-5.0469-0.83594-1.1641-2.0469-1.75-3.6406-1.75-1.5742 0-2.7773 0.58594-3.6094 1.75-0.83594 1.1562-1.25 2.8398-1.25 5.0469 0 2.2109 0.41406 3.8984 1.25 5.0625 0.83203 1.1562 2.0352 1.7344 3.6094 1.7344z"
         id="path1597" />
    </symbol>
    <symbol
       id="h"
       overflow="visible">
      <path
         d="m15.906-4.7812c1.5938 0 2.8047-0.57812 3.6406-1.7344 0.83203-1.1641 1.25-2.8516 1.25-5.0625 0-2.207-0.41797-3.8906-1.25-5.0469-0.83594-1.1641-2.0469-1.75-3.6406-1.75-1.5859 0-2.8047 0.58594-3.6562 1.75-0.84375 1.168-1.2656 2.8516-1.2656 5.0469 0 2.1992 0.42188 3.8828 1.2656 5.0469 0.85156 1.168 2.0703 1.75 3.6562 1.75zm-4.9219-15.016c1.0195-1.3516 2.1484-2.3516 3.3906-3 1.2383-0.64453 2.6641-0.96875 4.2812-0.96875 2.8633 0 5.2109 1.1406 7.0469 3.4219 1.832 2.2734 2.75 5.1953 2.75 8.7656 0 3.5742-0.91797 6.4961-2.75 8.7656-1.8359 2.2734-4.1836 3.4062-7.0469 3.4062-1.6172 0-3.043-0.32031-4.2812-0.95312-1.2422-0.64453-2.3711-1.6445-3.3906-3v3.3594h-7.4219v-32.234h7.4219z"
         id="path1600" />
    </symbol>
    <symbol
       id="d"
       overflow="visible">
      <path
         d="m0.51562-23.203h7.4219l6.2344 15.75 5.2969-15.75h7.4219l-9.7656 25.406c-0.98047 2.5703-2.1211 4.375-3.4219 5.4062-1.3047 1.0312-3.0273 1.5469-5.1719 1.5469h-4.2812v-4.875h2.3125c1.2578 0 2.1758-0.19922 2.75-0.59375 0.57031-0.39844 1.0156-1.1172 1.3281-2.1562l0.21875-0.64062z"
         id="path1603" />
    </symbol>
    <symbol
       id="c"
       overflow="visible">
      <path
         d="m26.891-14.125v14.125h-7.4688v-10.812c0-2-0.046875-3.3789-0.14062-4.1406-0.085938-0.75781-0.23438-1.3203-0.45312-1.6875-0.29297-0.47656-0.6875-0.85156-1.1875-1.125-0.49219-0.26953-1.0547-0.40625-1.6875-0.40625-1.5547 0-2.7734 0.60156-3.6562 1.7969-0.875 1.1992-1.3125 2.8555-1.3125 4.9688v11.406h-7.4219v-23.203h7.4219v3.4062c1.1133-1.3516 2.2969-2.3516 3.5469-3 1.2578-0.64453 2.6484-0.96875 4.1719-0.96875 2.6758 0 4.707 0.82422 6.0938 2.4688 1.3945 1.6484 2.0938 4.0391 2.0938 7.1719z"
         id="path1606" />
    </symbol>
    <symbol
       id="r"
       overflow="visible">
      <path
         d="m11.875-24.891v18.859h2.8594c3.25 0 5.7344-0.80469 7.4531-2.4219 1.7266-1.6133 2.5938-3.9609 2.5938-7.0469 0-3.0625-0.85938-5.3906-2.5781-6.9844-1.7109-1.6016-4.1992-2.4062-7.4688-2.4062zm-7.9844-6.0312h8.4062c4.6953 0 8.1953 0.33594 10.5 1 2.3008 0.66797 4.2695 1.8047 5.9062 3.4062 1.457 1.3984 2.5352 3.0078 3.2344 4.8281 0.70703 1.8242 1.0625 3.8867 1.0625 6.1875 0 2.3359-0.35547 4.418-1.0625 6.25-0.69922 1.8359-1.7773 3.4492-3.2344 4.8438-1.6562 1.5938-3.6484 2.7305-5.9688 3.4062-2.3125 0.66797-5.793 1-10.438 1h-8.4062z"
         id="path1609" />
    </symbol>
    <symbol
       id="q"
       overflow="visible">
      <path
         d="m21.688-22.469v5.625c-1.5859-0.65625-3.1172-1.1484-4.5938-1.4844-1.4805-0.33203-2.875-0.5-4.1875-0.5-1.4062 0-2.4531 0.17969-3.1406 0.53125-0.6875 0.35547-1.0312 0.89844-1.0312 1.625 0 0.59375 0.25781 1.0547 0.78125 1.375 0.51953 0.3125 1.4453 0.54297 2.7812 0.6875l1.3125 0.1875c3.8008 0.49219 6.3516 1.2891 7.6562 2.3906 1.3125 1.1055 1.9688 2.8398 1.9688 5.2031 0 2.4688-0.91406 4.3242-2.7344 5.5625-1.8242 1.2422-4.543 1.8594-8.1562 1.8594-1.5312 0-3.1172-0.12109-4.75-0.35938-1.6367-0.23828-3.3203-0.59766-5.0469-1.0781v-5.6406c1.4766 0.71875 2.9922 1.2617 4.5469 1.625 1.5508 0.35547 3.1289 0.53125 4.7344 0.53125 1.4453 0 2.5352-0.19531 3.2656-0.59375 0.73828-0.40625 1.1094-1.0039 1.1094-1.7969 0-0.65625-0.25781-1.1445-0.76562-1.4688-0.5-0.32031-1.5078-0.57812-3.0156-0.76562l-1.2969-0.15625c-3.3047-0.41406-5.6172-1.1797-6.9375-2.2969-1.3242-1.125-1.9844-2.8281-1.9844-5.1094 0-2.457 0.83594-4.2812 2.5156-5.4688 1.6875-1.1875 4.2695-1.7812 7.75-1.7812 1.3633 0 2.7969 0.10547 4.2969 0.3125 1.5078 0.21094 3.1484 0.53906 4.9219 0.98438z"
         id="path1612" />
    </symbol>
    <symbol
       id="p"
       overflow="visible">
      <path
         d="m3.5625-23.203h7.4219v23.203h-7.4219zm0-9.0312h7.4219v6.0469h-7.4219z"
         id="path1615" />
    </symbol>
    <symbol
       id="o"
       overflow="visible">
      <path
         d="m19.344-3.9375c-1.0234 1.3555-2.1484 2.3516-3.375 2.9844-1.2305 0.63672-2.6523 0.95312-4.2656 0.95312-2.8359 0-5.1797-1.1133-7.0312-3.3438-1.8438-2.2266-2.7656-5.0703-2.7656-8.5312 0-3.457 0.92188-6.2969 2.7656-8.5156 1.8516-2.2188 4.1953-3.3281 7.0312-3.3281 1.6133 0 3.0352 0.32031 4.2656 0.95312 1.2266 0.63672 2.3516 1.6367 3.375 3v-3.4375h7.4531v20.859c0 3.7266-1.1797 6.5781-3.5312 8.5469-2.3555 1.9688-5.7656 2.9531-10.234 2.9531-1.4492 0-2.8516-0.10938-4.2031-0.32812-1.3555-0.21875-2.7148-0.55859-4.0781-1.0156v-5.7812c1.2891 0.75 2.5547 1.3047 3.7969 1.6719 1.25 0.36328 2.5 0.54688 3.75 0.54688 2.4375 0 4.2188-0.53125 5.3438-1.5938 1.1328-1.0625 1.7031-2.7266 1.7031-5zm-4.8906-14.438c-1.5312 0-2.7266 0.57031-3.5781 1.7031-0.85547 1.1367-1.2812 2.7344-1.2812 4.7969 0 2.1367 0.41016 3.75 1.2344 4.8438 0.83203 1.0938 2.0391 1.6406 3.625 1.6406 1.5508 0 2.7539-0.5625 3.6094-1.6875 0.85156-1.1328 1.2812-2.7344 1.2812-4.7969s-0.42969-3.6602-1.2812-4.7969c-0.85547-1.1328-2.0586-1.7031-3.6094-1.7031z"
         id="path1618" />
    </symbol>
    <symbol
       id="n"
       overflow="visible">
      <path
         d="m18.828-32.234v4.875h-4.0938c-1.0547 0-1.7891 0.19531-2.2031 0.57812-0.41797 0.375-0.625 1.0312-0.625 1.9688v1.6094h6.3438v5.3125h-6.3438v17.891h-7.4062v-17.891h-3.6875v-5.3125h3.6875v-1.6094c0-2.5312 0.70312-4.3984 2.1094-5.6094 1.4062-1.207 3.5859-1.8125 6.5469-1.8125z"
         id="path1621" />
    </symbol>
    <symbol
       id="m"
       overflow="visible">
      <path
         d="m26.891-14.125v14.125h-7.4688v-10.766c0-2.0312-0.046875-3.4258-0.14062-4.1875-0.085938-0.75781-0.23438-1.3203-0.45312-1.6875-0.29297-0.47656-0.6875-0.85156-1.1875-1.125-0.49219-0.26953-1.0547-0.40625-1.6875-0.40625-1.5547 0-2.7734 0.60156-3.6562 1.7969-0.875 1.1992-1.3125 2.8555-1.3125 4.9688v11.406h-7.4219v-32.234h7.4219v12.438c1.1133-1.3516 2.2969-2.3516 3.5469-3 1.2578-0.64453 2.6484-0.96875 4.1719-0.96875 2.6758 0 4.707 0.82422 6.0938 2.4688 1.3945 1.6484 2.0938 4.0391 2.0938 7.1719z"
         id="path1624" />
    </symbol>
    <symbol
       id="l"
       overflow="visible">
      <path
         d="m3.8906-30.922h8.9062l11.25 21.203v-21.203h7.5625v30.922h-8.9062l-11.25-21.219v21.219h-7.5625z"
         id="path1627" />
    </symbol>
    <symbol
       id="k"
       overflow="visible">
      <path
         d="m3.8906-30.922h13.234c3.9375 0 6.957 0.875 9.0625 2.625 2.1016 1.7422 3.1562 4.2266 3.1562 7.4531 0 3.25-1.0547 5.75-3.1562 7.5-2.1055 1.7422-5.125 2.6094-9.0625 2.6094h-5.25v10.734h-7.9844zm7.9844 5.7812v8.625h4.4062c1.5391 0 2.7344-0.375 3.5781-1.125s1.2656-1.8164 1.2656-3.2031c0-1.375-0.42188-2.4297-1.2656-3.1719-0.84375-0.75-2.0391-1.125-3.5781-1.125z"
         id="path1630" />
    </symbol>
    <symbol
       id="j"
       overflow="visible">
      <path
         d="m3.5625-23.203h7.4219v22.781c0 3.1133-0.75 5.4883-2.25 7.125-1.4922 1.6328-3.6523 2.4531-6.4844 2.4531h-3.6562v-4.875h1.2812c1.4062 0 2.3672-0.32031 2.8906-0.95312 0.53125-0.63672 0.79688-1.8867 0.79688-3.75zm0-9.0312h7.4219v6.0469h-7.4219z"
         id="path1633" />
    </symbol>
  </defs>
  <path
     d="m 122.07334,301.40867 50.16451,29.36689 c 1.3688,0.81879 2.9182,1.18414 4.37945,1.18414 3.01065,0 5.92885,-1.54939 7.57068,-4.28711 2.46061,-4.10234 1.00354,-9.48534 -3.10298,-11.94563 L 143.78195,293.83831 181.085,271.94965 c 4.10234,-2.4606 5.56359,-7.75116 3.10298,-11.94561 -2.4606,-4.10234 -7.75116,-5.56359 -11.94562,-3.10299 l -50.1645,29.3669 c -2.74191,1.73418 -4.38364,4.56004 -4.38364,7.66302 0,3.09878 1.64173,5.92884 4.37945,7.47824 z"
     id="path1638"
     style="stroke-width:1.07492" />
  <path
     d="m 283.33329,327.67979 c 1.64172,2.73772 4.56003,4.28711 7.57067,4.28711 1.46126,0 3.01065,-0.3653 4.37946,-1.18413 l 50.1645,-29.3669 c 2.64528,-1.54939 4.28711,-4.37945 4.28711,-7.47824 0,-3.10298 -1.64172,-5.92884 -4.28711,-7.47824 l -50.1645,-29.36689 c -4.19468,-2.46061 -9.48534,-1.00354 -11.94562,3.10297 -2.4606,4.10234 -1.00354,9.48534 3.10298,11.94563 l 37.30305,21.88866 -37.30305,21.88865 c -4.20317,2.27583 -5.57197,7.65463 -3.10717,11.76073 z"
     id="path1640"
     style="stroke-width:1.07492" />
  <path
     d="m 199.32806,366.62424 c 1.18413,0.54586 2.4606,0.81879 3.74127,0.81879 3.28357,0 6.38235,-1.82231 7.8436,-5.01774 l 61.19966,-129.7002 c 2.0071,-4.37945 0.18056,-9.57777 -4.19467,-11.58444 -4.37945,-2.09943 -9.57777,-0.18056 -11.58445,4.19467 l -61.19965,129.7002 c -2.0071,4.38364 -0.0923,9.58197 4.19467,11.58875 z"
     id="path1642"
     style="stroke-width:1.07492" />
  <path
     d="m 491.37386,430.10919 h 88.01362 c 4.83296,0 8.66657,-3.92175 8.66657,-8.66657 0,-4.83295 -3.92175,-8.66656 -8.66657,-8.66656 l -88.01362,0.005 c -4.83295,0 -8.66656,3.92175 -8.66656,8.66657 0,4.74063 3.92175,8.66237 8.66656,8.66237 z"
     id="path1644"
     style="stroke-width:1.07492" />
  <path
     d="m 265.36057,421.43456 c 0,4.83297 3.92175,8.66657 8.66657,8.66657 h 150.48921 c 4.83296,0 8.66657,-3.92175 8.66657,-8.66657 0,-4.83296 -3.92175,-8.66657 -8.66657,-8.66657 H 274.02714 c -4.74482,-0.0882 -8.66657,3.83361 -8.66657,8.66657 z"
     id="path1646"
     style="stroke-width:1.07492" />
  <path
     d="m 126.45903,430.10919 h 76.61298 c 4.83296,0 8.66657,-3.92175 8.66657,-8.66657 0,-4.83295 -3.92175,-8.66656 -8.66657,-8.66656 h -76.61298 c -4.83296,0 -8.66656,3.92175 -8.66656,8.66656 -0.0882,4.74482 3.8336,8.66657 8.66656,8.66657 z"
     id="path1648"
     style="stroke-width:1.07492" />
  <path
     d="m 126.45903,480.63057 h 452.92952 c 4.83297,0 8.66657,-3.92175 8.66657,-8.66657 0,-4.83296 -3.92174,-8.66657 -8.66657,-8.66657 l -452.92952,0.005 c -4.83296,0 -8.66656,3.92175 -8.66656,8.66657 -0.0882,4.74062 3.8336,8.66237 8.66656,8.66237 z"
     id="path1650"
     style="stroke-width:1.07492" />
  <path
     d="M 579.37781,513.6522 H 477.95668 c -4.83296,0 -8.66657,3.92175 -8.66657,8.66656 0,4.83297 3.92175,8.66657 8.66657,8.66657 h 101.51357 c 4.83296,0 8.66657,-3.92175 8.66657,-8.66657 -0.005,-4.74481 -3.92594,-8.66656 -8.7589,-8.66656 z"
     id="path1652"
     style="stroke-width:1.07492" />
  <path
     d="M 438.10069,513.6522 H 305.3907 c -4.83296,0 -8.66656,3.92175 -8.66656,8.66656 0,4.83297 3.92175,8.66657 8.66656,8.66657 h 132.69924 c 4.83296,0 8.66656,-3.92175 8.66656,-8.66657 0.0923,-4.74481 -3.82941,-8.66656 -8.66237,-8.66656 z"
     id="path1654"
     style="stroke-width:1.07492" />
  <path
     d="m 126.45903,531.06595 h 89.10896 c 4.83297,0 8.66657,-3.92174 8.66657,-8.66657 0,-4.83296 -3.92174,-8.66656 -8.66657,-8.66656 l -89.10896,0.005 c -4.83296,0 -8.66656,3.92175 -8.66656,8.66657 -0.0882,4.74063 3.8336,8.66238 8.66656,8.66238 z"
     id="path1656"
     style="stroke-width:1.07492" />
  <path
     d="m 579.37781,564.17357 h -94.21484 c -4.83297,0 -8.66657,3.92175 -8.66657,8.66657 0,4.83297 3.92174,8.66657 8.66657,8.66657 h 94.30728 c 4.83296,0 8.66657,-3.92174 8.66657,-8.66657 -0.005,-4.83715 -3.92594,-8.66657 -8.7589,-8.66657 z"
     id="path1658"
     style="stroke-width:1.07492" />
  <path
     d="m 126.45903,581.59808 h 286.56371 c 4.83295,0 8.66656,-3.92175 8.66656,-8.66657 0,-4.83296 -3.92175,-8.66657 -8.66656,-8.66657 l -286.56371,0.005 c -4.83296,0 -8.66656,3.92175 -8.66656,8.66657 -0.0882,4.74062 3.8336,8.66237 8.66656,8.66237 z"
     id="path1660"
     style="stroke-width:1.07492" />
  <path
     d="M 593.79252,73.672274 H 106.20748 c -23.983684,0 -43.505355,19.520601 -43.505355,43.505356 v 487.58504 c 0,23.98798 19.516301,43.50535 43.505355,43.50535 h 487.58504 c 23.98799,0 43.50536,-19.5163 43.50536,-43.50535 V 117.17763 c 0,-23.98368 -19.5206,-43.505356 -43.50536,-43.505356 z M 80.119096,117.17763 c 0,-14.41042 11.672593,-26.08408 26.084084,-26.08408 h 487.58505 c 14.41041,0 26.08407,11.67259 26.08407,26.08408 v 51.52966 l -539.751054,0.005 z M 619.87015,604.76267 c 0,14.41042 -11.67258,26.08408 -26.08407,26.08408 H 106.20104 c -14.410421,0 -26.084094,-11.67259 -26.084094,-26.08408 V 186.13394 H 619.96475 v 418.62873 z"
     id="path1662"
     style="stroke-width:1.07492" />
  <path
     d="m 126.82451,123.74433 c -0.45769,-0.3653 -0.91117,-0.73061 -1.36881,-1.00354 -0.45348,-0.45349 -1.00354,-0.73061 -1.5494,-0.81879 -0.54585,-0.27293 -1.00353,-0.45768 -1.64172,-0.55006 -1.00354,-0.27293 -2.28003,-0.27293 -3.3759,0 -0.54586,0.0924 -1.0917,0.27713 -1.5494,0.55006 -0.54586,0.0882 -1.09169,0.3653 -1.64173,0.72642 -0.45768,0.3653 -0.91117,0.73061 -1.27647,1.00353 -0.81879,0.91117 -1.36881,1.82232 -1.82232,2.9182 -0.55006,1.09589 -0.73061,2.19188 -0.73061,3.28357 0,2.37235 0.91117,4.56004 2.55294,6.20177 0.91117,0.81879 1.82232,1.3688 2.9182,1.82231 1.00354,0.46189 2.09943,0.73481 3.28356,0.73481 1.18834,0 2.28003,-0.27293 3.28357,-0.73061 1.00354,-0.45768 2.0071,-1.00354 2.91821,-1.82232 1.64172,-1.64173 2.46479,-3.83361 2.46479,-6.20596 0,-1.09588 -0.27293,-2.28002 -0.73061,-3.28357 -0.3653,-0.99934 -1.00354,-2.0029 -1.73417,-2.82586 z"
     id="path1664"
     style="stroke-width:1.07492" />
  <path
     d="m 170.32664,123.74433 c -0.91117,-0.81879 -1.82232,-1.36881 -2.91821,-1.82232 -1.54938,-0.73061 -3.28356,-0.91116 -5.01773,-0.54585 -0.54586,0.0924 -1.00354,0.27293 -1.5494,0.54585 -0.63823,0.18056 -1.00354,0.45769 -1.5494,0.81879 -0.45767,0.27294 -0.91116,0.73062 -1.27646,1.00354 -0.8188,0.91117 -1.36881,1.73418 -1.82232,2.9182 -0.45768,1.00354 -0.73061,2.18769 -0.73061,3.28357 0,1.09588 0.27293,2.28002 0.73061,3.28357 0.45769,1.00353 1.00354,2.00709 1.82232,2.9182 0.91117,0.81879 1.82231,1.3688 2.9182,1.82231 1.00354,0.45768 2.18768,0.73062 3.28356,0.73062 1.09589,0 2.28003,-0.27294 3.28357,-0.73062 1.00355,-0.45768 2.0071,-1.00353 2.91821,-1.82231 0.81879,-0.91117 1.3688,-1.82232 1.82231,-2.9182 0.45768,-1.00354 0.73062,-2.18769 0.73062,-3.28357 0,-1.09588 -0.27294,-2.28002 -0.73062,-3.28357 -0.54586,-1.18413 -1.18414,-2.09524 -1.91465,-2.9182 z"
     id="path1666"
     style="stroke-width:1.07492" />
  <path
     d="m 213.82877,123.74433 c -3.19124,-3.19123 -9.02763,-3.19123 -12.40354,0 -1.54939,1.64173 -2.55294,3.92175 -2.55294,6.20177 0,2.37235 0.91117,4.56004 2.55294,6.20177 0.91117,0.81879 1.73418,1.3688 2.9182,1.82231 1.00354,0.45768 2.18768,0.73062 3.28357,0.73062 1.09589,0 2.28002,-0.27294 3.28357,-0.73062 1.00353,-0.45768 2.00709,-1.00353 2.9182,-1.82231 1.54939,-1.64173 2.55294,-3.82942 2.55294,-6.20177 0,-1.09589 -0.27294,-2.28002 -0.73061,-3.28357 -0.45349,-1.18413 -0.99935,-2.18768 -1.82233,-2.9182 z"
     id="path1668"
     style="stroke-width:1.07492" />
  <path
     d="m 579.37781,121.19139 h -202.9347 c -4.83297,0 -8.66657,3.92175 -8.66657,8.66657 0,4.74481 3.92175,8.66656 8.66657,8.66656 h 202.9347 c 4.83296,0 8.66657,-3.92175 8.66657,-8.66656 -0.005,-4.74482 -3.83361,-8.66657 -8.66657,-8.66657 z"
     id="path1670"
     style="stroke-width:1.07492" />
</svg>
