<?xml version="1.0" encoding="UTF-8" standalone="no"?>
<svg
   width="700pt"
   height="700pt"
   version="1.1"
   viewBox="0 0 700 700"
   id="svg92"
   sodipodi:docname="hobby.svg"
   inkscape:version="1.2.2 (732a01da63, 2022-12-09)"
   xmlns:inkscape="http://www.inkscape.org/namespaces/inkscape"
   xmlns:sodipodi="http://sodipodi.sourceforge.net/DTD/sodipodi-0.dtd"
   xmlns="http://www.w3.org/2000/svg"
   xmlns:svg="http://www.w3.org/2000/svg">
  <sodipodi:namedview
     id="namedview94"
     pagecolor="#ffffff"
     bordercolor="#000000"
     borderopacity="0.25"
     inkscape:showpageshadow="2"
     inkscape:pageopacity="0.0"
     inkscape:pagecheckerboard="0"
     inkscape:deskcolor="#d1d1d1"
     inkscape:document-units="pt"
     showgrid="false"
     inkscape:zoom="0.86142857"
     inkscape:cx="466.66667"
     inkscape:cy="567.08126"
     inkscape:window-width="1920"
     inkscape:window-height="991"
     inkscape:window-x="-9"
     inkscape:window-y="-9"
     inkscape:window-maximized="1"
     inkscape:current-layer="svg92" />
  <defs
     id="defs38">
    <symbol
       id="l"
       overflow="visible">
      <path
         d="m29.312-1.75c-1.5117 0.78125-3.0898 1.3711-4.7344 1.7656-1.6367 0.40625-3.3398 0.60938-5.1094 0.60938-5.3125 0-9.5273-1.4844-12.641-4.4531-3.1055-2.9688-4.6562-7-4.6562-12.094s1.5508-9.125 4.6562-12.094c3.1133-2.9688 7.3281-4.4531 12.641-4.4531 1.7695 0 3.4727 0.19922 5.1094 0.59375 1.6445 0.39844 3.2227 0.99219 4.7344 1.7812v6.5938c-1.5312-1.0391-3.0391-1.8008-4.5156-2.2812-1.4805-0.48828-3.0391-0.73438-4.6719-0.73438-2.9375 0-5.2461 0.94531-6.9219 2.8281-1.6797 1.875-2.5156 4.4648-2.5156 7.7656 0 3.293 0.83594 5.8828 2.5156 7.7656 1.6758 1.875 3.9844 2.8125 6.9219 2.8125 1.6328 0 3.1914-0.23828 4.6719-0.71875 1.4766-0.48828 2.9844-1.2539 4.5156-2.2969z"
         id="path2" />
    </symbol>
    <symbol
       id="b"
       overflow="visible">
      <path
         d="m21.453-17.406c-0.67969-0.3125-1.3516-0.53906-2.0156-0.6875-0.65625-0.15625-1.3203-0.23438-1.9844-0.23438-1.9688 0-3.4844 0.63281-4.5469 1.8906-1.0547 1.2617-1.5781 3.0703-1.5781 5.4219v11.016h-7.6562v-23.922h7.6562v3.9219c0.97656-1.5625 2.1016-2.7031 3.375-3.4219 1.2812-0.71875 2.8125-1.0781 4.5938-1.0781 0.25 0 0.52344 0.011719 0.82812 0.03125 0.30078 0.023438 0.73438 0.070312 1.2969 0.14062z"
         id="path5" />
    </symbol>
    <symbol
       id="a"
       overflow="visible">
      <path
         d="m27.562-12.031v2.1875h-17.891c0.1875 1.793 0.83203 3.1367 1.9375 4.0312 1.1133 0.89844 2.6719 1.3438 4.6719 1.3438 1.6016 0 3.25-0.23438 4.9375-0.70312 1.6875-0.47656 3.4219-1.2031 5.2031-2.1719v5.8906c-1.8047 0.6875-3.6094 1.2031-5.4219 1.5469-1.8125 0.35156-3.6211 0.53125-5.4219 0.53125-4.3359 0-7.7031-1.0977-10.109-3.2969-2.3984-2.207-3.5938-5.2969-3.5938-9.2656 0-3.9062 1.1758-6.9727 3.5312-9.2031 2.3633-2.2383 5.6094-3.3594 9.7344-3.3594 3.7578 0 6.7695 1.1367 9.0312 3.4062 2.2578 2.2617 3.3906 5.2812 3.3906 9.0625zm-7.8594-2.5312c0-1.457-0.42969-2.6289-1.2812-3.5156-0.84375-0.89453-1.9492-1.3438-3.3125-1.3438-1.4922 0-2.6992 0.41797-3.625 1.25-0.91797 0.83594-1.4922 2.0391-1.7188 3.6094z"
         id="path8" />
    </symbol>
    <symbol
       id="h"
       overflow="visible">
      <path
         d="m14.391-10.766c-1.5938 0-2.793 0.27344-3.5938 0.8125-0.80469 0.54297-1.2031 1.3398-1.2031 2.3906 0 0.96875 0.32031 1.7305 0.96875 2.2812 0.64453 0.54297 1.5469 0.8125 2.7031 0.8125 1.4375 0 2.6445-0.51562 3.625-1.5469 0.98828-1.0312 1.4844-2.3203 1.4844-3.875v-0.875zm11.688-2.8906v13.656h-7.7031v-3.5469c-1.0312 1.4492-2.1875 2.5078-3.4688 3.1719s-2.8398 1-4.6719 1c-2.4805 0-4.4961-0.72266-6.0469-2.1719-1.543-1.4453-2.3125-3.3203-2.3125-5.625 0-2.8125 0.96094-4.8672 2.8906-6.1719 1.9375-1.3125 4.9688-1.9688 9.0938-1.9688h4.5156v-0.60938c0-1.207-0.48047-2.0938-1.4375-2.6562-0.94922-0.5625-2.4375-0.84375-4.4688-0.84375-1.6367 0-3.1562 0.16797-4.5625 0.5-1.4062 0.32422-2.7188 0.8125-3.9375 1.4688v-5.8281c1.6445-0.40625 3.2891-0.70703 4.9375-0.90625 1.6562-0.20703 3.3047-0.3125 4.9531-0.3125 4.3203 0 7.4375 0.85547 9.3438 2.5625 1.9141 1.6992 2.875 4.4609 2.875 8.2812z"
         id="path11" />
    </symbol>
    <symbol
       id="g"
       overflow="visible">
      <path
         d="m12.031-30.719v6.7969h7.875v5.4688h-7.875v10.141c0 1.1172 0.21875 1.8711 0.65625 2.2656 0.4375 0.38672 1.3125 0.57812 2.625 0.57812h3.9375v5.4688h-6.5625c-3.0234 0-5.1641-0.62891-6.4219-1.8906-1.2617-1.2578-1.8906-3.3984-1.8906-6.4219v-10.141h-3.7969v-5.4688h3.7969v-6.7969z"
         id="path14" />
    </symbol>
    <symbol
       id="f"
       overflow="visible">
      <path
         d="m19.953-20.422v-12.812h7.6875v33.234h-7.6875v-3.4531c-1.0547 1.4062-2.2148 2.4375-3.4844 3.0938-1.2734 0.65625-2.7422 0.98438-4.4062 0.98438-2.9492 0-5.3711-1.1719-7.2656-3.5156-1.8867-2.3438-2.8281-5.3594-2.8281-9.0469s0.94141-6.7031 2.8281-9.0469c1.8945-2.3438 4.3164-3.5156 7.2656-3.5156 1.6562 0 3.1172 0.33594 4.3906 1 1.2812 0.65625 2.4453 1.6836 3.5 3.0781zm-5.0469 15.484c1.6445 0 2.8945-0.59766 3.75-1.7969 0.86328-1.1953 1.2969-2.9297 1.2969-5.2031 0-2.2812-0.43359-4.0195-1.2969-5.2188-0.85547-1.1953-2.1055-1.7969-3.75-1.7969-1.625 0-2.8711 0.60156-3.7344 1.7969-0.85547 1.1992-1.2812 2.9375-1.2812 5.2188 0 2.2734 0.42578 4.0078 1.2812 5.2031 0.86328 1.1992 2.1094 1.7969 3.7344 1.7969z"
         id="path17" />
    </symbol>
    <symbol
       id="e"
       overflow="visible">
      <path
         d="m16.406-4.9375c1.6328 0 2.8828-0.59766 3.75-1.7969 0.86328-1.1953 1.2969-2.9297 1.2969-5.2031 0-2.2812-0.43359-4.0195-1.2969-5.2188-0.86719-1.1953-2.1172-1.7969-3.75-1.7969-1.6367 0-2.8906 0.60547-3.7656 1.8125-0.875 1.1992-1.3125 2.9336-1.3125 5.2031 0 2.2617 0.4375 3.9961 1.3125 5.2031 0.875 1.1992 2.1289 1.7969 3.7656 1.7969zm-5.0781-15.484c1.0508-1.3945 2.2188-2.4219 3.5-3.0781 1.2812-0.66406 2.7539-1 4.4219-1 2.9453 0 5.3672 1.1719 7.2656 3.5156 1.8945 2.3438 2.8438 5.3594 2.8438 9.0469s-0.94922 6.7031-2.8438 9.0469c-1.8984 2.3438-4.3203 3.5156-7.2656 3.5156-1.668 0-3.1406-0.33594-4.4219-1s-2.4492-1.6914-3.5-3.0781v3.4531h-7.6562v-33.234h7.6562z"
         id="path20" />
    </symbol>
    <symbol
       id="d"
       overflow="visible">
      <path
         d="m0.53125-23.922h7.6562l6.4219 16.234 5.4688-16.234h7.6562l-10.062 26.188c-1.0117 2.6641-2.1953 4.5234-3.5469 5.5781-1.3438 1.0625-3.1211 1.5938-5.3281 1.5938h-4.4219v-5.0156h2.3906c1.3008 0 2.2422-0.21094 2.8281-0.625 0.59375-0.40625 1.0547-1.1484 1.3906-2.2188l0.20312-0.65625z"
         id="path23" />
    </symbol>
    <symbol
       id="c"
       overflow="visible">
      <path
         d="m16.797-19.547c1.2891 0 2.2695-0.28125 2.9375-0.84375 0.67578-0.57031 1.0156-1.4141 1.0156-2.5312 0-1.0938-0.33984-1.9258-1.0156-2.5-0.66797-0.58203-1.6484-0.875-2.9375-0.875h-4.5625v6.75zm0.26562 13.953c1.6562 0 2.8984-0.34766 3.7344-1.0469 0.83203-0.69531 1.25-1.7539 1.25-3.1719 0-1.375-0.41797-2.4062-1.25-3.0938-0.82422-0.69531-2.0703-1.0469-3.7344-1.0469h-4.8281v8.3594zm7.6562-11.469c1.7578 0.51172 3.125 1.4609 4.0938 2.8438 0.96875 1.375 1.4531 3.0703 1.4531 5.0781 0 3.0742-1.043 5.3672-3.125 6.875-2.0742 1.5117-5.2305 2.2656-9.4688 2.2656h-13.656v-31.891h12.344c4.4258 0 7.6328 0.67188 9.625 2.0156 1.9883 1.3359 2.9844 3.4766 2.9844 6.4219 0 1.5547-0.36719 2.875-1.0938 3.9688-0.73047 1.0859-1.7812 1.8906-3.1562 2.4219z"
         id="path26" />
    </symbol>
    <symbol
       id="k"
       overflow="visible">
      <path
         d="m23-23.172v6.2344c-1.0312-0.71875-2.0742-1.2422-3.125-1.5781-1.043-0.34375-2.125-0.51562-3.25-0.51562-2.1367 0-3.8047 0.625-5 1.875-1.1875 1.2422-1.7812 2.9805-1.7812 5.2188 0 2.2305 0.59375 3.9688 1.7812 5.2188 1.1953 1.25 2.8633 1.875 5 1.875 1.1953 0 2.332-0.17578 3.4062-0.53125 1.0703-0.36328 2.0625-0.89453 2.9688-1.5938v6.2656c-1.1875 0.4375-2.4023 0.76562-3.6406 0.98438-1.2305 0.22656-2.4648 0.34375-3.7031 0.34375-4.3125 0-7.6875-1.1094-10.125-3.3281s-3.6562-5.2969-3.6562-9.2344c0-3.9453 1.2188-7.0234 3.6562-9.2344 2.4375-2.2188 5.8125-3.3281 10.125-3.3281 1.25 0 2.4844 0.10938 3.7031 0.32812s2.4297 0.55469 3.6406 1z"
         id="path29" />
    </symbol>
    <symbol
       id="j"
       overflow="visible">
      <path
         d="m3.6719-23.922h7.6562v23.922h-7.6562zm0-9.3125h7.6562v6.2344h-7.6562z"
         id="path32" />
    </symbol>
    <symbol
       id="i"
       overflow="visible">
      <path
         d="m22.359-23.172v5.7969c-1.6367-0.67578-3.2148-1.1875-4.7344-1.5312-1.5234-0.34375-2.9609-0.51562-4.3125-0.51562-1.4609 0-2.543 0.18359-3.25 0.54688-0.69922 0.36719-1.0469 0.92188-1.0469 1.6719 0 0.61719 0.26562 1.0898 0.79688 1.4219 0.53125 0.32422 1.4883 0.5625 2.875 0.71875l1.3438 0.1875c3.9141 0.5 6.5508 1.3242 7.9062 2.4688 1.3516 1.1367 2.0312 2.9219 2.0312 5.3594 0 2.5547-0.94531 4.4688-2.8281 5.75-1.875 1.2812-4.6797 1.9219-8.4062 1.9219-1.5859 0-3.2188-0.125-4.9062-0.375s-3.4219-0.625-5.2031-1.125v-5.8125c1.5195 0.74219 3.082 1.2969 4.6875 1.6719 1.6016 0.36719 3.2344 0.54688 4.8906 0.54688 1.4883 0 2.6094-0.20312 3.3594-0.60938 0.75781-0.41406 1.1406-1.0312 1.1406-1.8438 0-0.6875-0.26172-1.1953-0.78125-1.5312-0.52344-0.33203-1.5586-0.59375-3.1094-0.78125l-1.3438-0.17188c-3.4062-0.42578-5.793-1.2109-7.1562-2.3594-1.3672-1.1562-2.0469-2.9102-2.0469-5.2656 0-2.5312 0.86719-4.4062 2.6094-5.625 1.7383-1.2266 4.3984-1.8438 7.9844-1.8438 1.4062 0 2.8828 0.10938 4.4375 0.32812 1.5508 0.21094 3.2383 0.54297 5.0625 1z"
         id="path35" />
    </symbol>
  </defs>
  <path
     d="m 683.89303,353.99316 c 0,-61.08061 -17.24639,-120.1214 -49.60842,-171.49316 2.27048,-2.28006 4.50729,-4.51687 6.70085,-6.72972 l 24.548,24.548 15.20164,-15.20165 -24.58118,-24.58118 c 14.39555,-14.46313 24.60945,-24.74952 24.60945,-24.74952 4.1712,-4.20488 4.16162,-10.98731 -0.0192,-15.18199 L 594.72728,34.58702 c -4.20488,-4.204876 -11.00169,-4.204876 -15.20165,0 l -24.65737,24.652449 -24.65245,-24.652449 -15.20164,15.201647 24.65246,24.65245 -6.68647,6.686464 C 481.56171,48.712719 422.46808,31.433148 361.32725,31.433148 c -177.85841,0 -322.563449,144.705042 -322.563449,322.563452 0,34.38711 5.611252,68.27532 16.362882,100.89662 -28.459319,57.96558 -20.011229,129.59064 24.964568,179.24698 30.019899,33.14969 71.102809,52.00828 115.681689,53.10316 1.36804,0.048 2.74567,0.0672 4.12329,0.0672 28.55516,0 55.83481,-7.49293 79.94044,-21.35554 26.66401,6.96012 54.03951,10.60331 81.48997,10.60331 177.85842,0 322.56345,-144.70504 322.56345,-322.56346 z M 372.08169,654.78205 V 528.02997 c 9.31207,-14.15101 21.65292,-26.1172 36.37533,-34.54563 12.45156,-7.12809 23.50597,-16.20558 33.00961,-27.08672 3.17279,-3.62402 6.17282,-7.44968 8.99049,-11.48179 2.43845,-3.48479 4.61284,-7.08484 6.66729,-10.75211 70.68502,23.06482 116.51115,69.38493 119.00318,120.5097 -52.33515,53.32804 -124.26987,87.28383 -204.04442,90.11133 z M 518.163,224.96778 443.65146,299.47932 c -8.53927,-10.25776 -18.45186,-19.07486 -29.42885,-26.17003 l 76.13358,-76.14832 z m 15.20165,15.20165 13.90033,13.90033 c 0.99841,0.99841 2.19368,1.79518 3.4945,2.34237 6.80652,2.79358 6.80652,2.82725 32.91376,-23.21351 1.13761,-1.13761 2.41929,-2.41929 3.62402,-3.61443 l 24.49516,24.49516 15.20165,-15.20165 -24.49517,-24.49516 c 4.8913,-4.89129 10.34415,-10.35374 16.34445,-16.37762 26.68859,43.92024 41.36185,93.70683 43.19032,145.24571 H 467.41425 c -2.77442,-8.93286 -6.50411,-17.62118 -11.24647,-25.86774 z m -61.20104,124.57708 h 189.96222 c -2.38561,67.67565 -27.18257,129.7258 -67.21976,178.93977 -11.91371,-51.41846 -59.61219,-96.01578 -128.89021,-119.2428 6.7393,-19.20021 8.78404,-39.69681 6.14885,-59.69329 z m 114.96161,-307.36304 70.83494,70.83494 c -14.0736,14.15961 -29.80364,29.96706 -44.87995,45.09621 h -0.01 c -33.51342,33.63384 -50.05939,50.13681 -58.07125,58.07125 l -70.9443,-70.93078 z m -86.01692,55.61363 -24.65245,-24.652454 -15.20164,15.201644 24.65244,24.65246 -24.65244,24.65244 c -4.20488,4.20488 -4.20488,11.00169 0,15.20165 l 13.90033,13.90525 -80.87557,80.87557 c -7.15206,-3.0192 -14.57741,-5.35689 -22.19113,-7.0513 l -0.005,-202.483834 c 51.61998,1.819258 101.46802,16.545969 145.41775,43.296003 z M 350.57869,53.203048 V 252.73773 c -24.05279,-1.20481 -47.64109,4.4832 -68.36256,15.85906 C 202.86675,247.98591 149.25855,198.36275 146.54287,143.307 198.87311,89.978968 270.81274,56.033004 350.575,53.205505 Z M 76.135566,422.43683 c -2.087999,2.48158 -4.108905,5.06406 -6.062472,7.7425 -5.611253,-21.38872 -8.678493,-43.29109 -9.460879,-65.42938 H 176.40327 c -4.3441,1.6992 -8.7505,3.20646 -13.25766,4.248 -12.79686,2.96648 -25.03215,7.42093 -36.51418,13.24784 -19.15229,9.71524 -36.249987,23.27495 -50.496847,40.19079 z M 210.35882,343.24596 H 60.529639 c 2.385618,-67.67565 27.16783,-129.71351 67.209931,-178.92748 12.22571,52.09553 61.58934,97.28759 131.85165,120.07839 -2.23681,1.94398 -4.50729,3.84004 -6.61445,5.94721 -7.10893,7.10893 -13.36335,15.01978 -18.60055,23.52563 -6.96491,11.32327 -15.08122,21.1491 -24.01961,29.37601 z m -14.06376,322.5143 C 157.66363,664.80506 122.06245,648.46103 96.021449,619.71786 56.238624,575.79762 49.422397,512.03328 75.947558,461.29927 c 0.06242,-0.12005 0.172795,-0.2064 0.235207,-0.3312 4.776028,-9.1393 10.29131,-17.43809 16.387452,-24.67703 19.771603,-23.48139 45.845783,-39.51371 75.403653,-46.35452 33.69652,-7.79534 63.78278,-30.79282 84.71561,-64.80023 4.35369,-7.07526 9.57135,-13.66563 15.49411,-19.58851 2.61122,-2.61123 5.34251,-5.05448 8.18414,-7.36329 1.12801,-0.91202 2.33278,-1.70879 3.4945,-2.58248 1.74245,-1.30082 3.4752,-2.63519 5.28008,-3.82566 1.52644,-1.01281 3.12967,-1.89127 4.70882,-2.81767 1.51684,-0.89281 3.0096,-1.81926 4.56971,-2.63519 1.79517,-0.93601 3.65768,-1.76163 5.50569,-2.59206 1.40638,-0.6336 2.80809,-1.30082 4.23843,-1.88156 1.96806,-0.79681 3.98885,-1.47359 6.00004,-2.14083 1.38721,-0.46081 2.77442,-0.94561 4.1808,-1.35367 2.04486,-0.5904 4.11849,-1.0848 6.20169,-1.55997 1.46401,-0.33121 2.91364,-0.65762 4.38723,-0.92642 2.03037,-0.36481 4.07524,-0.65761 6.12969,-0.91201 1.62241,-0.2064 3.23522,-0.37441 4.872,-0.4944 1.90085,-0.1488 3.81608,-0.23521 5.73131,-0.2784 2.8608,-0.0624 5.70722,-0.1296 8.59211,0.0433 30.96486,1.73288 58.7815,16.17118 78.31717,40.6516 29.37601,36.80664 31.1283,89.31997 4.2576,127.68597 -2.36645,3.36486 -4.872,6.58091 -7.5169,9.61448 -7.95853,9.10576 -17.18372,16.68483 -27.55736,22.62245 -31.04228,17.78462 -53.68439,48.33168 -62.10299,83.80383 -0.74401,3.12967 -1.59365,6.22566 -2.54881,9.28811 -0.10555,0.3312 -0.2352,0.65761 -0.3456,0.98881 -1.01281,3.16321 -2.15042,6.2785 -3.38882,9.35533 -5.34251,13.29084 -12.75385,25.68465 -21.92203,36.78329 -2.80808,3.38882 -5.70722,6.71043 -8.85126,9.84009 -3.76324,3.76324 -7.83848,7.35371 -12.19216,10.75211 -0.0624,0.0528 -0.1392,0.096 -0.20641,0.1488 -4.30084,3.34569 -8.87055,6.50411 -13.6902,9.4513 -22.71339,13.87698 -48.908,21.03851 -76.2196,20.54452 z m 117.51017,-25.6994 c 13.5366,-13.52677 24.42758,-29.28016 32.34236,-46.44053 1.60323,-3.46083 3.06245,-6.98888 4.4209,-10.56976 v 71.73688 c -15.77304,-0.5712 -31.50308,-2.31361 -47.04019,-5.34251 3.61443,-3.00482 7.04171,-6.13448 10.27693,-9.38408 z"
     id="path40"
     style="stroke-width:1.22881" />
  <path
     d="m 149.43304,501.36472 15.20656,-15.20656 75.25989,75.25989 -15.20656,15.20656 z"
     id="path42"
     style="stroke-width:1.22881" />
  <path
     d="m 264.56054,526.027 c 35.57783,0 64.51269,-28.93486 64.51269,-64.51269 0,-35.57782 -28.93486,-64.51269 -64.51269,-64.51269 -35.57783,0 -64.51269,28.93487 -64.51269,64.51269 0,35.57783 28.93486,64.51269 64.51269,64.51269 z m 0,-107.52115 c 23.71732,0 43.00846,19.29114 43.00846,43.00846 0,23.71733 -19.29114,43.00846 -43.00846,43.00846 -23.71732,0 -43.00846,-19.29113 -43.00846,-43.00846 0,-23.71732 19.29114,-43.00846 43.00846,-43.00846 z"
     id="path44"
     style="stroke-width:1.22881" />
  <path
     d="m 515.00495,152.84874 21.49932,-21.49932 15.20656,15.20656 -21.49932,21.49932 z"
     id="path46"
     style="stroke-width:1.22881" />
  <path
     d="m 558.01341,109.84273 21.49932,-21.499313 15.20656,15.206563 -21.49932,21.49932 z"
     id="path48"
     style="stroke-width:1.22881" />
  <path
     d="m 547.2613,185.10508 21.49931,-21.49931 15.20656,15.20656 -21.49931,21.49932 z"
     id="path50"
     style="stroke-width:1.22881" />
  <path
     d="m 590.26976,142.09662 21.49931,-21.49931 15.20656,15.20656 -21.49931,21.49931 z"
     id="path52"
     style="stroke-width:1.22881" />
</svg>
