<?xml version="1.0" encoding="UTF-8" standalone="no"?>
<svg
   width="700pt"
   height="700pt"
   version="1.1"
   viewBox="0 0 700 700"
   id="svg552"
   sodipodi:docname="language.svg"
   inkscape:version="1.2.2 (732a01da63, 2022-12-09)"
   xmlns:inkscape="http://www.inkscape.org/namespaces/inkscape"
   xmlns:sodipodi="http://sodipodi.sourceforge.net/DTD/sodipodi-0.dtd"
   xmlns="http://www.w3.org/2000/svg"
   xmlns:svg="http://www.w3.org/2000/svg">
  <sodipodi:namedview
     id="namedview554"
     pagecolor="#ffffff"
     bordercolor="#000000"
     borderopacity="0.25"
     inkscape:showpageshadow="2"
     inkscape:pageopacity="0.0"
     inkscape:pagecheckerboard="0"
     inkscape:deskcolor="#d1d1d1"
     inkscape:document-units="pt"
     showgrid="false"
     inkscape:zoom="0.86142857"
     inkscape:cx="466.66667"
     inkscape:cy="519.4859"
     inkscape:window-width="1920"
     inkscape:window-height="991"
     inkscape:window-x="-9"
     inkscape:window-y="-9"
     inkscape:window-maximized="1"
     inkscape:current-layer="svg552" />
  <defs
     id="defs512">
    <symbol
       id="o"
       overflow="visible">
      <path
         d="m29.312-1.75c-1.5117 0.78125-3.0898 1.3711-4.7344 1.7656-1.6367 0.40625-3.3398 0.60938-5.1094 0.60938-5.3125 0-9.5273-1.4844-12.641-4.4531-3.1055-2.9688-4.6562-7-4.6562-12.094s1.5508-9.125 4.6562-12.094c3.1133-2.9688 7.3281-4.4531 12.641-4.4531 1.7695 0 3.4727 0.19922 5.1094 0.59375 1.6445 0.39844 3.2227 0.99219 4.7344 1.7812v6.5938c-1.5312-1.0391-3.0391-1.8008-4.5156-2.2812-1.4805-0.48828-3.0391-0.73438-4.6719-0.73438-2.9375 0-5.2461 0.94531-6.9219 2.8281-1.6797 1.875-2.5156 4.4648-2.5156 7.7656 0 3.293 0.83594 5.8828 2.5156 7.7656 1.6758 1.875 3.9844 2.8125 6.9219 2.8125 1.6328 0 3.1914-0.23828 4.6719-0.71875 1.4766-0.48828 2.9844-1.2539 4.5156-2.2969z"
         id="path467" />
    </symbol>
    <symbol
       id="h"
       overflow="visible">
      <path
         d="m21.453-17.406c-0.67969-0.3125-1.3516-0.53906-2.0156-0.6875-0.65625-0.15625-1.3203-0.23438-1.9844-0.23438-1.9688 0-3.4844 0.63281-4.5469 1.8906-1.0547 1.2617-1.5781 3.0703-1.5781 5.4219v11.016h-7.6562v-23.922h7.6562v3.9219c0.97656-1.5625 2.1016-2.7031 3.375-3.4219 1.2812-0.71875 2.8125-1.0781 4.5938-1.0781 0.25 0 0.52344 0.011719 0.82812 0.03125 0.30078 0.023438 0.73438 0.070312 1.2969 0.14062z"
         id="path470" />
    </symbol>
    <symbol
       id="a"
       overflow="visible">
      <path
         d="m27.562-12.031v2.1875h-17.891c0.1875 1.793 0.83203 3.1367 1.9375 4.0312 1.1133 0.89844 2.6719 1.3438 4.6719 1.3438 1.6016 0 3.25-0.23438 4.9375-0.70312 1.6875-0.47656 3.4219-1.2031 5.2031-2.1719v5.8906c-1.8047 0.6875-3.6094 1.2031-5.4219 1.5469-1.8125 0.35156-3.6211 0.53125-5.4219 0.53125-4.3359 0-7.7031-1.0977-10.109-3.2969-2.3984-2.207-3.5938-5.2969-3.5938-9.2656 0-3.9062 1.1758-6.9727 3.5312-9.2031 2.3633-2.2383 5.6094-3.3594 9.7344-3.3594 3.7578 0 6.7695 1.1367 9.0312 3.4062 2.2578 2.2617 3.3906 5.2812 3.3906 9.0625zm-7.8594-2.5312c0-1.457-0.42969-2.6289-1.2812-3.5156-0.84375-0.89453-1.9492-1.3438-3.3125-1.3438-1.4922 0-2.6992 0.41797-3.625 1.25-0.91797 0.83594-1.4922 2.0391-1.7188 3.6094z"
         id="path473" />
    </symbol>
    <symbol
       id="g"
       overflow="visible">
      <path
         d="m14.391-10.766c-1.5938 0-2.793 0.27344-3.5938 0.8125-0.80469 0.54297-1.2031 1.3398-1.2031 2.3906 0 0.96875 0.32031 1.7305 0.96875 2.2812 0.64453 0.54297 1.5469 0.8125 2.7031 0.8125 1.4375 0 2.6445-0.51562 3.625-1.5469 0.98828-1.0312 1.4844-2.3203 1.4844-3.875v-0.875zm11.688-2.8906v13.656h-7.7031v-3.5469c-1.0312 1.4492-2.1875 2.5078-3.4688 3.1719s-2.8398 1-4.6719 1c-2.4805 0-4.4961-0.72266-6.0469-2.1719-1.543-1.4453-2.3125-3.3203-2.3125-5.625 0-2.8125 0.96094-4.8672 2.8906-6.1719 1.9375-1.3125 4.9688-1.9688 9.0938-1.9688h4.5156v-0.60938c0-1.207-0.48047-2.0938-1.4375-2.6562-0.94922-0.5625-2.4375-0.84375-4.4688-0.84375-1.6367 0-3.1562 0.16797-4.5625 0.5-1.4062 0.32422-2.7188 0.8125-3.9375 1.4688v-5.8281c1.6445-0.40625 3.2891-0.70703 4.9375-0.90625 1.6562-0.20703 3.3047-0.3125 4.9531-0.3125 4.3203 0 7.4375 0.85547 9.3438 2.5625 1.9141 1.6992 2.875 4.4609 2.875 8.2812z"
         id="path476" />
    </symbol>
    <symbol
       id="f"
       overflow="visible">
      <path
         d="m12.031-30.719v6.7969h7.875v5.4688h-7.875v10.141c0 1.1172 0.21875 1.8711 0.65625 2.2656 0.4375 0.38672 1.3125 0.57812 2.625 0.57812h3.9375v5.4688h-6.5625c-3.0234 0-5.1641-0.62891-6.4219-1.8906-1.2617-1.2578-1.8906-3.3984-1.8906-6.4219v-10.141h-3.7969v-5.4688h3.7969v-6.7969z"
         id="path479" />
    </symbol>
    <symbol
       id="e"
       overflow="visible">
      <path
         d="m19.953-20.422v-12.812h7.6875v33.234h-7.6875v-3.4531c-1.0547 1.4062-2.2148 2.4375-3.4844 3.0938-1.2734 0.65625-2.7422 0.98438-4.4062 0.98438-2.9492 0-5.3711-1.1719-7.2656-3.5156-1.8867-2.3438-2.8281-5.3594-2.8281-9.0469s0.94141-6.7031 2.8281-9.0469c1.8945-2.3438 4.3164-3.5156 7.2656-3.5156 1.6562 0 3.1172 0.33594 4.3906 1 1.2812 0.65625 2.4453 1.6836 3.5 3.0781zm-5.0469 15.484c1.6445 0 2.8945-0.59766 3.75-1.7969 0.86328-1.1953 1.2969-2.9297 1.2969-5.2031 0-2.2812-0.43359-4.0195-1.2969-5.2188-0.85547-1.1953-2.1055-1.7969-3.75-1.7969-1.625 0-2.8711 0.60156-3.7344 1.7969-0.85547 1.1992-1.2812 2.9375-1.2812 5.2188 0 2.2734 0.42578 4.0078 1.2812 5.2031 0.86328 1.1992 2.1094 1.7969 3.7344 1.7969z"
         id="path482" />
    </symbol>
    <symbol
       id="d"
       overflow="visible">
      <path
         d="m16.406-4.9375c1.6328 0 2.8828-0.59766 3.75-1.7969 0.86328-1.1953 1.2969-2.9297 1.2969-5.2031 0-2.2812-0.43359-4.0195-1.2969-5.2188-0.86719-1.1953-2.1172-1.7969-3.75-1.7969-1.6367 0-2.8906 0.60547-3.7656 1.8125-0.875 1.1992-1.3125 2.9336-1.3125 5.2031 0 2.2617 0.4375 3.9961 1.3125 5.2031 0.875 1.1992 2.1289 1.7969 3.7656 1.7969zm-5.0781-15.484c1.0508-1.3945 2.2188-2.4219 3.5-3.0781 1.2812-0.66406 2.7539-1 4.4219-1 2.9453 0 5.3672 1.1719 7.2656 3.5156 1.8945 2.3438 2.8438 5.3594 2.8438 9.0469s-0.94922 6.7031-2.8438 9.0469c-1.8984 2.3438-4.3203 3.5156-7.2656 3.5156-1.668 0-3.1406-0.33594-4.4219-1s-2.4492-1.6914-3.5-3.0781v3.4531h-7.6562v-33.234h7.6562z"
         id="path485" />
    </symbol>
    <symbol
       id="c"
       overflow="visible">
      <path
         d="m0.53125-23.922h7.6562l6.4219 16.234 5.4688-16.234h7.6562l-10.062 26.188c-1.0117 2.6641-2.1953 4.5234-3.5469 5.5781-1.3438 1.0625-3.1211 1.5938-5.3281 1.5938h-4.4219v-5.0156h2.3906c1.3008 0 2.2422-0.21094 2.8281-0.625 0.59375-0.40625 1.0547-1.1484 1.3906-2.2188l0.20312-0.65625z"
         id="path488" />
    </symbol>
    <symbol
       id="b"
       overflow="visible">
      <path
         d="m0.21875-31.891h29.391v6.2188h-10.578v25.672h-8.2188v-25.672h-10.594z"
         id="path491" />
    </symbol>
    <symbol
       id="n"
       overflow="visible">
      <path
         d="m27.734-14.562v14.562h-7.7031v-11.109c0-2.0938-0.046875-3.5312-0.14062-4.3125-0.085937-0.78125-0.24219-1.3594-0.46875-1.7344-0.30469-0.5-0.71094-0.88281-1.2188-1.1562-0.51172-0.28125-1.0938-0.42188-1.75-0.42188-1.5938 0-2.8516 0.61719-3.7656 1.8438-0.90625 1.2305-1.3594 2.9375-1.3594 5.125v11.766h-7.6562v-33.234h7.6562v12.812c1.1445-1.3945 2.3633-2.4219 3.6562-3.0781 1.3008-0.66406 2.7383-1 4.3125-1 2.7578 0 4.8516 0.85156 6.2812 2.5469 1.4375 1.6875 2.1562 4.1523 2.1562 7.3906z"
         id="path494" />
    </symbol>
    <symbol
       id="m"
       overflow="visible">
      <path
         d="m4.0156-31.891h8.2188v31.891h-8.2188z"
         id="path497" />
    </symbol>
    <symbol
       id="l"
       overflow="visible">
      <path
         d="m23-23.172v6.2344c-1.0312-0.71875-2.0742-1.2422-3.125-1.5781-1.043-0.34375-2.125-0.51562-3.25-0.51562-2.1367 0-3.8047 0.625-5 1.875-1.1875 1.2422-1.7812 2.9805-1.7812 5.2188 0 2.2305 0.59375 3.9688 1.7812 5.2188 1.1953 1.25 2.8633 1.875 5 1.875 1.1953 0 2.332-0.17578 3.4062-0.53125 1.0703-0.36328 2.0625-0.89453 2.9688-1.5938v6.2656c-1.1875 0.4375-2.4023 0.76562-3.6406 0.98438-1.2305 0.22656-2.4648 0.34375-3.7031 0.34375-4.3125 0-7.6875-1.1094-10.125-3.3281s-3.6562-5.2969-3.6562-9.2344c0-3.9453 1.2188-7.0234 3.6562-9.2344 2.4375-2.2188 5.8125-3.3281 10.125-3.3281 1.25 0 2.4844 0.10938 3.7031 0.32812s2.4297 0.55469 3.6406 1z"
         id="path500" />
    </symbol>
    <symbol
       id="k"
       overflow="visible">
      <path
         d="m15.062-19.031c-1.6992 0-2.9961 0.60938-3.8906 1.8281-0.88672 1.2188-1.3281 2.9766-1.3281 5.2656 0 2.293 0.44141 4.0469 1.3281 5.2656 0.89453 1.2188 2.1914 1.8281 3.8906 1.8281 1.6641 0 2.9375-0.60938 3.8125-1.8281 0.88281-1.2188 1.3281-2.9727 1.3281-5.2656 0-2.2891-0.44531-4.0469-1.3281-5.2656-0.875-1.2188-2.1484-1.8281-3.8125-1.8281zm0-5.4688c4.1133 0 7.3281 1.1094 9.6406 3.3281s3.4688 5.2969 3.4688 9.2344c0 3.9297-1.1562 7.0078-3.4688 9.2344-2.3125 2.2188-5.5273 3.3281-9.6406 3.3281-4.1367 0-7.3711-1.1094-9.7031-3.3281-2.3242-2.2266-3.4844-5.3047-3.4844-9.2344 0-3.9375 1.1602-7.0156 3.4844-9.2344 2.332-2.2188 5.5664-3.3281 9.7031-3.3281z"
         id="path503" />
    </symbol>
    <symbol
       id="j"
       overflow="visible">
      <path
         d="m27.734-14.562v14.562h-7.7031v-11.156c0-2.0625-0.046875-3.4844-0.14062-4.2656-0.085937-0.78125-0.24219-1.3594-0.46875-1.7344-0.30469-0.5-0.71094-0.88281-1.2188-1.1562-0.51172-0.28125-1.0938-0.42188-1.75-0.42188-1.5938 0-2.8516 0.61719-3.7656 1.8438-0.90625 1.2305-1.3594 2.9375-1.3594 5.125v11.766h-7.6562v-23.922h7.6562v3.5c1.1445-1.3945 2.3633-2.4219 3.6562-3.0781 1.3008-0.66406 2.7383-1 4.3125-1 2.7578 0 4.8516 0.85156 6.2812 2.5469 1.4375 1.6875 2.1562 4.1523 2.1562 7.3906z"
         id="path506" />
    </symbol>
    <symbol
       id="i"
       overflow="visible">
      <path
         d="m2.4531-31.891h26.812v4.9688l-17.109 20.703h17.594v6.2188h-27.781v-4.9844l17.109-20.688h-16.625z"
         id="path509" />
    </symbol>
  </defs>
  <path
     d="M 623.87231,255.48964 H 431.96727 V 121.07463 C 431.93646,101.84602 424.28305,83.408475 410.68084,69.805345 397.08296,56.207472 378.64542,48.554397 359.41155,48.524174 H 80.476427 C 61.242558,48.554974 42.805008,56.208392 29.207135,69.805345 15.604005,83.408475 7.9509313,101.84602 7.9207073,121.07463 v 174.42808 c -0.07187,14.43887 4.2604397,28.55974 12.4219227,40.4743 26.558429,51.74104 153.03521,129.35325 154.2967,130.50174 1.79659,1.11388 3.86518,1.70933 5.98002,1.7247 2.7,-0.0256 5.30762,-1.00607 7.36083,-2.76162 3.74205,-3.19277 5.03547,-8.41812 3.21839,-12.9917 -10.10182,-27.44673 -17.79629,-55.72395 -22.99602,-84.50971 h 104.16934 v 134.53327 c 0.0307,19.22336 7.68934,37.64514 21.29168,51.22725 13.60313,13.5821 32.04068,21.21021 51.26403,21.21021 h 191.2086 c -5.19973,28.78575 -12.89419,57.06429 -22.99602,84.5097 -1.76583,4.5427 -0.47224,9.70143 3.21839,12.87882 2.05322,1.75545 4.66084,2.73075 7.36083,2.76163 2.11485,-0.0154 4.18344,-0.61083 5.98002,-1.7247 1.26273,-0.80589 127.7409,-78.76202 154.30984,-130.50174 h -0.005 c 8.16148,-11.91378 12.4938,-26.03412 12.42192,-40.47431 V 328.05074 c -0.0308,-19.22861 -7.68422,-37.66616 -21.28643,-51.26929 -13.59787,-13.59787 -32.03542,-21.25095 -51.26929,-21.28117 z m -392.53544,89.45319 h -76.81064 c -3.35702,0 -6.54979,1.47319 -8.73638,4.0243 -2.20723,2.56649 -3.1774,5.96977 -2.64349,9.31641 3.95754,23.81731 9.29078,47.39282 15.97894,70.59515 C 119.34482,401.97072 56.680017,355.75398 41.040097,325.97217 h 0.0053 c -0.354178,-0.80076 -0.775084,-1.5707 -1.267856,-2.2996 -5.790003,-8.24874 -8.885267,-18.08933 -8.854518,-28.17078 V 121.07371 c 0.03075,-13.13033 5.261358,-25.71611 14.55188,-35.007815 9.28566,-9.285661 21.872497,-14.5164 35.007823,-14.546624 H 359.4178 c 13.13546,0.0308 25.72138,5.261358 35.00782,14.546624 9.29079,9.290785 14.52166,21.876435 14.55188,35.007815 v 134.41501 h -64.04456 c -21.9382,0.0105 -42.69112,9.94269 -56.45851,27.01966 -16.40996,0.0359 -32.5847,-3.91142 -47.14183,-11.49801 21.46645,-24.29956 34.10375,-55.12868 35.8751,-87.49787 h 14.49012 c 6.34953,0 11.49801,-5.14848 11.49801,-11.49801 0,-6.35465 -5.14848,-11.49801 -11.49801,-11.49801 h -59.78965 v -36.33633 c 0,-6.34953 -5.14848,-11.49801 -11.49801,-11.49801 -6.35465,0 -11.498,5.14848 -11.498,11.49801 v 35.98811 h -59.90792 c -6.34953,0 -11.49801,5.14848 -11.49801,11.498 0,6.35466 5.14848,11.49801 11.49801,11.49801 h 105.09443 c -1.67844,26.6307 -12.14991,51.95129 -29.78181,71.98016 l -1.83758,1.72471 c -12.79157,-12.49381 -22.61625,-27.70298 -28.74502,-44.49795 -2.28935,-5.93889 -8.95202,-8.89552 -14.89091,-6.61129 -5.93889,2.28422 -8.89552,8.95202 -6.61129,14.8909 6.85781,18.61758 17.50851,35.61361 31.2759,49.89873 -16.76475,8.47463 -35.38233,12.62219 -54.15891,12.07291 -6.34953,0 -11.49801,5.14848 -11.49801,11.49801 0,6.35465 5.14848,11.49801 11.49801,11.49801 25.78839,0.81102 51.24827,-5.94401 73.24298,-19.42835 16.17474,10.29683 34.59652,16.52822 53.69635,18.16554 -2.57161,7.3967 -3.89592,15.16817 -3.91142,22.99602 v 16.90272 z m 442.10172,157.52929 c 0.0307,10.08132 -3.06439,19.92112 -8.85452,28.17077 -0.49791,0.6673 -0.88289,1.40132 -1.1498,2.18673 -15.63467,29.78181 -78.41774,76.11813 -118.19822,103.48208 6.6883,-23.20627 12.02153,-46.77785 15.97895,-70.6004 0.53384,-3.34165 -0.43631,-6.74993 -2.64349,-9.31129 -2.18672,-2.55624 -5.37949,-4.0243 -8.73638,-4.0243 H 344.93404 c -13.1252,0 -25.71086,-5.20486 -35.00256,-14.47567 -9.29079,-9.27028 -14.52692,-21.84621 -14.55714,-34.96577 V 328.04628 c 0.0307,-13.13034 5.26136,-25.71612 14.55188,-35.00783 9.28566,-9.28566 21.8725,-14.5164 35.00782,-14.54662 h 278.93512 c 13.13546,0.0308 25.72137,5.26136 35.00782,14.54662 9.29079,9.29079 14.52166,21.87644 14.55188,35.00783 z M 495.56768,325.63932 c -0.43631,-0.96502 -1.02147,-1.85309 -1.7247,-2.64349 0,0 0,-0.80589 -0.80589,-1.14981 -0.4055,-0.29771 -0.82642,-0.56463 -1.26273,-0.80588 -0.73402,-0.6365 -1.54507,-1.17547 -2.4176,-1.61182 -0.61083,-0.0514 -1.22679,-0.0514 -1.83758,0 -0.80589,-0.0514 -1.61183,-0.0514 -2.41761,0 -1.0112,0.0821 -2.01734,0.27718 -2.98738,0.5749 h -1.26273 c -1.07793,0.47737 -2.08396,1.09847 -2.9925,1.8427 l -0.80589,0.5749 -0.91881,1.38081 c -0.60057,0.75456 -1.13954,1.56557 -1.6067,2.41248 l -68.98805,172.47013 c -1.1344,2.83337 -1.0882,6.00564 0.118,8.80826 1.20627,2.80263 3.48015,5.01497 6.31878,6.13915 1.34993,0.55438 2.7975,0.82642 4.25531,0.80589 4.71208,0.005 8.9469,-2.86938 10.6921,-7.2427 l 20.00916,-50.24695 h 76.46242 l 20.12086,50.24695 c 1.74007,4.37332 5.98001,7.24782 10.69209,7.2427 1.45782,0 2.90013,-0.27205 4.25532,-0.80589 2.83337,-1.12414 5.10735,-3.33652 6.31878,-6.13915 1.20626,-2.80262 1.24733,-5.97489 0.11813,-8.80826 z m -39.89875,107.73699 29.08931,-72.55046 28.97629,72.55046 z"
     id="path514"
     style="stroke-width:1.31406" />
</svg>
