<?xml version="1.0" encoding="UTF-8" standalone="no"?>
<svg
   width="700pt"
   height="700pt"
   version="1.1"
   viewBox="0 0 700 700"
   id="svg658"
   sodipodi:docname="sew.svg"
   inkscape:version="1.2.2 (732a01da63, 2022-12-09)"
   xmlns:inkscape="http://www.inkscape.org/namespaces/inkscape"
   xmlns:sodipodi="http://sodipodi.sourceforge.net/DTD/sodipodi-0.dtd"
   xmlns="http://www.w3.org/2000/svg"
   xmlns:svg="http://www.w3.org/2000/svg">
  <sodipodi:namedview
     id="namedview660"
     pagecolor="#ffffff"
     bordercolor="#000000"
     borderopacity="0.25"
     inkscape:showpageshadow="2"
     inkscape:pageopacity="0.0"
     inkscape:pagecheckerboard="0"
     inkscape:deskcolor="#d1d1d1"
     inkscape:document-units="pt"
     showgrid="false"
     inkscape:zoom="0.86142857"
     inkscape:cx="466.66667"
     inkscape:cy="484.66003"
     inkscape:window-width="1920"
     inkscape:window-height="991"
     inkscape:window-x="-9"
     inkscape:window-y="-9"
     inkscape:window-maximized="1"
     inkscape:current-layer="svg658" />
  <defs
     id="defs576">
    <symbol
       id="m"
       overflow="visible">
      <path
         d="m29.312-1.75c-1.5117 0.78125-3.0898 1.3711-4.7344 1.7656-1.6367 0.40625-3.3398 0.60938-5.1094 0.60938-5.3125 0-9.5273-1.4844-12.641-4.4531-3.1055-2.9688-4.6562-7-4.6562-12.094s1.5508-9.125 4.6562-12.094c3.1133-2.9688 7.3281-4.4531 12.641-4.4531 1.7695 0 3.4727 0.19922 5.1094 0.59375 1.6445 0.39844 3.2227 0.99219 4.7344 1.7812v6.5938c-1.5312-1.0391-3.0391-1.8008-4.5156-2.2812-1.4805-0.48828-3.0391-0.73438-4.6719-0.73438-2.9375 0-5.2461 0.94531-6.9219 2.8281-1.6797 1.875-2.5156 4.4648-2.5156 7.7656 0 3.293 0.83594 5.8828 2.5156 7.7656 1.6758 1.875 3.9844 2.8125 6.9219 2.8125 1.6328 0 3.1914-0.23828 4.6719-0.71875 1.4766-0.48828 2.9844-1.2539 4.5156-2.2969z"
         id="path537" />
    </symbol>
    <symbol
       id="h"
       overflow="visible">
      <path
         d="m21.453-17.406c-0.67969-0.3125-1.3516-0.53906-2.0156-0.6875-0.65625-0.15625-1.3203-0.23438-1.9844-0.23438-1.9688 0-3.4844 0.63281-4.5469 1.8906-1.0547 1.2617-1.5781 3.0703-1.5781 5.4219v11.016h-7.6562v-23.922h7.6562v3.9219c0.97656-1.5625 2.1016-2.7031 3.375-3.4219 1.2812-0.71875 2.8125-1.0781 4.5938-1.0781 0.25 0 0.52344 0.011719 0.82812 0.03125 0.30078 0.023438 0.73438 0.070312 1.2969 0.14062z"
         id="path540" />
    </symbol>
    <symbol
       id="c"
       overflow="visible">
      <path
         d="m27.562-12.031v2.1875h-17.891c0.1875 1.793 0.83203 3.1367 1.9375 4.0312 1.1133 0.89844 2.6719 1.3438 4.6719 1.3438 1.6016 0 3.25-0.23438 4.9375-0.70312 1.6875-0.47656 3.4219-1.2031 5.2031-2.1719v5.8906c-1.8047 0.6875-3.6094 1.2031-5.4219 1.5469-1.8125 0.35156-3.6211 0.53125-5.4219 0.53125-4.3359 0-7.7031-1.0977-10.109-3.2969-2.3984-2.207-3.5938-5.2969-3.5938-9.2656 0-3.9062 1.1758-6.9727 3.5312-9.2031 2.3633-2.2383 5.6094-3.3594 9.7344-3.3594 3.7578 0 6.7695 1.1367 9.0312 3.4062 2.2578 2.2617 3.3906 5.2812 3.3906 9.0625zm-7.8594-2.5312c0-1.457-0.42969-2.6289-1.2812-3.5156-0.84375-0.89453-1.9492-1.3438-3.3125-1.3438-1.4922 0-2.6992 0.41797-3.625 1.25-0.91797 0.83594-1.4922 2.0391-1.7188 3.6094z"
         id="path543" />
    </symbol>
    <symbol
       id="b"
       overflow="visible">
      <path
         d="m14.391-10.766c-1.5938 0-2.793 0.27344-3.5938 0.8125-0.80469 0.54297-1.2031 1.3398-1.2031 2.3906 0 0.96875 0.32031 1.7305 0.96875 2.2812 0.64453 0.54297 1.5469 0.8125 2.7031 0.8125 1.4375 0 2.6445-0.51562 3.625-1.5469 0.98828-1.0312 1.4844-2.3203 1.4844-3.875v-0.875zm11.688-2.8906v13.656h-7.7031v-3.5469c-1.0312 1.4492-2.1875 2.5078-3.4688 3.1719s-2.8398 1-4.6719 1c-2.4805 0-4.4961-0.72266-6.0469-2.1719-1.543-1.4453-2.3125-3.3203-2.3125-5.625 0-2.8125 0.96094-4.8672 2.8906-6.1719 1.9375-1.3125 4.9688-1.9688 9.0938-1.9688h4.5156v-0.60938c0-1.207-0.48047-2.0938-1.4375-2.6562-0.94922-0.5625-2.4375-0.84375-4.4688-0.84375-1.6367 0-3.1562 0.16797-4.5625 0.5-1.4062 0.32422-2.7188 0.8125-3.9375 1.4688v-5.8281c1.6445-0.40625 3.2891-0.70703 4.9375-0.90625 1.6562-0.20703 3.3047-0.3125 4.9531-0.3125 4.3203 0 7.4375 0.85547 9.3438 2.5625 1.9141 1.6992 2.875 4.4609 2.875 8.2812z"
         id="path546" />
    </symbol>
    <symbol
       id="g"
       overflow="visible">
      <path
         d="m12.031-30.719v6.7969h7.875v5.4688h-7.875v10.141c0 1.1172 0.21875 1.8711 0.65625 2.2656 0.4375 0.38672 1.3125 0.57812 2.625 0.57812h3.9375v5.4688h-6.5625c-3.0234 0-5.1641-0.62891-6.4219-1.8906-1.2617-1.2578-1.8906-3.3984-1.8906-6.4219v-10.141h-3.7969v-5.4688h3.7969v-6.7969z"
         id="path549" />
    </symbol>
    <symbol
       id="f"
       overflow="visible">
      <path
         d="m19.953-20.422v-12.812h7.6875v33.234h-7.6875v-3.4531c-1.0547 1.4062-2.2148 2.4375-3.4844 3.0938-1.2734 0.65625-2.7422 0.98438-4.4062 0.98438-2.9492 0-5.3711-1.1719-7.2656-3.5156-1.8867-2.3438-2.8281-5.3594-2.8281-9.0469s0.94141-6.7031 2.8281-9.0469c1.8945-2.3438 4.3164-3.5156 7.2656-3.5156 1.6562 0 3.1172 0.33594 4.3906 1 1.2812 0.65625 2.4453 1.6836 3.5 3.0781zm-5.0469 15.484c1.6445 0 2.8945-0.59766 3.75-1.7969 0.86328-1.1953 1.2969-2.9297 1.2969-5.2031 0-2.2812-0.43359-4.0195-1.2969-5.2188-0.85547-1.1953-2.1055-1.7969-3.75-1.7969-1.625 0-2.8711 0.60156-3.7344 1.7969-0.85547 1.1992-1.2812 2.9375-1.2812 5.2188 0 2.2734 0.42578 4.0078 1.2812 5.2031 0.86328 1.1992 2.1094 1.7969 3.7344 1.7969z"
         id="path552" />
    </symbol>
    <symbol
       id="e"
       overflow="visible">
      <path
         d="m16.406-4.9375c1.6328 0 2.8828-0.59766 3.75-1.7969 0.86328-1.1953 1.2969-2.9297 1.2969-5.2031 0-2.2812-0.43359-4.0195-1.2969-5.2188-0.86719-1.1953-2.1172-1.7969-3.75-1.7969-1.6367 0-2.8906 0.60547-3.7656 1.8125-0.875 1.1992-1.3125 2.9336-1.3125 5.2031 0 2.2617 0.4375 3.9961 1.3125 5.2031 0.875 1.1992 2.1289 1.7969 3.7656 1.7969zm-5.0781-15.484c1.0508-1.3945 2.2188-2.4219 3.5-3.0781 1.2812-0.66406 2.7539-1 4.4219-1 2.9453 0 5.3672 1.1719 7.2656 3.5156 1.8945 2.3438 2.8438 5.3594 2.8438 9.0469s-0.94922 6.7031-2.8438 9.0469c-1.8984 2.3438-4.3203 3.5156-7.2656 3.5156-1.668 0-3.1406-0.33594-4.4219-1s-2.4492-1.6914-3.5-3.0781v3.4531h-7.6562v-33.234h7.6562z"
         id="path555" />
    </symbol>
    <symbol
       id="a"
       overflow="visible">
      <path
         d="m0.53125-23.922h7.6562l6.4219 16.234 5.4688-16.234h7.6562l-10.062 26.188c-1.0117 2.6641-2.1953 4.5234-3.5469 5.5781-1.3438 1.0625-3.1211 1.5938-5.3281 1.5938h-4.4219v-5.0156h2.3906c1.3008 0 2.2422-0.21094 2.8281-0.625 0.59375-0.40625 1.0547-1.1484 1.3906-2.2188l0.20312-0.65625z"
         id="path558" />
    </symbol>
    <symbol
       id="d"
       overflow="visible">
      <path
         d="m4.0156-31.891h22.203v6.2188h-13.984v5.9375h13.141v6.2188h-13.141v7.2969h14.453v6.2188h-22.672z"
         id="path561" />
    </symbol>
    <symbol
       id="l"
       overflow="visible">
      <path
         d="m3.4219-9.3125v-14.609h7.6875v2.3906c0 1.293-0.011719 2.918-0.03125 4.875-0.011719 1.9609-0.015625 3.2656-0.015625 3.9219 0 1.9297 0.046875 3.3125 0.14062 4.1562 0.10156 0.84375 0.28125 1.4609 0.53125 1.8438 0.3125 0.5 0.71875 0.88672 1.2188 1.1562 0.50781 0.27344 1.0938 0.40625 1.75 0.40625 1.5938 0 2.8438-0.60938 3.75-1.8281 0.91406-1.2266 1.375-2.9297 1.375-5.1094v-11.812h7.6406v23.922h-7.6406v-3.4531c-1.1562 1.3867-2.3828 2.4141-3.6719 3.0781-1.2812 0.66406-2.6992 1-4.25 1-2.7734 0-4.8828-0.84766-6.3281-2.5469-1.4375-1.6953-2.1562-4.1602-2.1562-7.3906z"
         id="path564" />
    </symbol>
    <symbol
       id="k"
       overflow="visible">
      <path
         d="m23-23.172v6.2344c-1.0312-0.71875-2.0742-1.2422-3.125-1.5781-1.043-0.34375-2.125-0.51562-3.25-0.51562-2.1367 0-3.8047 0.625-5 1.875-1.1875 1.2422-1.7812 2.9805-1.7812 5.2188 0 2.2305 0.59375 3.9688 1.7812 5.2188 1.1953 1.25 2.8633 1.875 5 1.875 1.1953 0 2.332-0.17578 3.4062-0.53125 1.0703-0.36328 2.0625-0.89453 2.9688-1.5938v6.2656c-1.1875 0.4375-2.4023 0.76562-3.6406 0.98438-1.2305 0.22656-2.4648 0.34375-3.7031 0.34375-4.3125 0-7.6875-1.1094-10.125-3.3281s-3.6562-5.2969-3.6562-9.2344c0-3.9453 1.2188-7.0234 3.6562-9.2344 2.4375-2.2188 5.8125-3.3281 10.125-3.3281 1.25 0 2.4844 0.10938 3.7031 0.32812s2.4297 0.55469 3.6406 1z"
         id="path567" />
    </symbol>
    <symbol
       id="j"
       overflow="visible">
      <path
         d="m3.6719-33.234h7.6562v33.234h-7.6562z"
         id="path570" />
    </symbol>
    <symbol
       id="i"
       overflow="visible">
      <path
         d="m11.328-3.4531v12.547h-7.6562v-33.016h7.6562v3.5c1.0508-1.3945 2.2188-2.4219 3.5-3.0781 1.2812-0.66406 2.7539-1 4.4219-1 2.9453 0 5.3672 1.1719 7.2656 3.5156 1.8945 2.3438 2.8438 5.3594 2.8438 9.0469s-0.94922 6.7031-2.8438 9.0469c-1.8984 2.3438-4.3203 3.5156-7.2656 3.5156-1.668 0-3.1406-0.33594-4.4219-1s-2.4492-1.6914-3.5-3.0781zm5.0781-15.5c-1.6367 0-2.8906 0.60547-3.7656 1.8125-0.875 1.1992-1.3125 2.9336-1.3125 5.2031 0 2.2617 0.4375 3.9961 1.3125 5.2031 0.875 1.1992 2.1289 1.7969 3.7656 1.7969 1.6328 0 2.8828-0.59766 3.75-1.7969 0.86328-1.1953 1.2969-2.9297 1.2969-5.2031 0-2.2812-0.43359-4.0195-1.2969-5.2188-0.86719-1.1953-2.1172-1.7969-3.75-1.7969z"
         id="path573" />
    </symbol>
  </defs>
  <path
     d="M 82.014591,219.21561 H 123.58657 V 240.0016 H 82.014591 Z"
     id="path578"
     style="stroke-width:1.18777" />
  <path
     d="m 144.37256,219.21561 h 41.57197 v 20.78599 h -41.57197 z"
     id="path580"
     style="stroke-width:1.18777" />
  <path
     d="M 206.73052,219.21561 H 248.3025 V 240.0016 H 206.73052 Z"
     id="path582"
     style="stroke-width:1.18777" />
  <path
     d="m 269.08849,219.21561 h 41.57198 v 20.78599 h -41.57198 z"
     id="path584"
     style="stroke-width:1.18777" />
  <path
     d="m 331.44646,219.21561 h 41.57198 v 20.78599 h -41.57198 z"
     id="path586"
     style="stroke-width:1.18777" />
  <path
     d="m 123.58657,593.36342 h 41.57198 v 20.78599 h -41.57198 z"
     id="path588"
     style="stroke-width:1.18777" />
  <path
     d="m 185.94453,593.36342 h 41.57198 v 20.78599 h -41.57198 z"
     id="path590"
     style="stroke-width:1.18777" />
  <path
     d="m 248.3025,593.36342 h 41.57198 v 20.78599 H 248.3025 Z"
     id="path592"
     style="stroke-width:1.18777" />
  <path
     d="m 310.66047,593.36342 h 41.57198 v 20.78599 h -41.57198 z"
     id="path594"
     style="stroke-width:1.18777" />
  <path
     d="m 373.01844,593.36342 h 41.57198 v 20.78599 h -41.57198 z"
     id="path596"
     style="stroke-width:1.18777" />
  <path
     d="m 435.37641,593.36342 h 41.57198 v 20.78599 h -41.57198 z"
     id="path598"
     style="stroke-width:1.18777" />
  <path
     d="m 82.014591,260.78759 h 20.785989 v 41.57198 H 82.014591 Z"
     id="path600"
     style="stroke-width:1.18777" />
  <path
     d="m 82.014591,323.14556 h 20.785989 v 41.57198 H 82.014591 Z"
     id="path602"
     style="stroke-width:1.18777" />
  <path
     d="M 82.014591,385.50352 H 102.80058 V 427.0755 H 82.014591 Z"
     id="path604"
     style="stroke-width:1.18777" />
  <path
     d="m 82.014591,447.86149 h 20.785989 v 41.57198 H 82.014591 Z"
     id="path606"
     style="stroke-width:1.18777" />
  <path
     d="m 82.014591,510.21946 h 20.785989 v 41.57198 H 82.014591 Z"
     id="path608"
     style="stroke-width:1.18777" />
  <path
     d="m 82.014591,572.57743 h 20.785989 v 41.57198 H 82.014591 Z"
     id="path610"
     style="stroke-width:1.18777" />
  <path
     d="m 476.94839,281.57358 h 20.78599 v 41.57198 h -20.78599 z"
     id="path612"
     style="stroke-width:1.18777" />
  <path
     d="m 476.94839,343.93155 h 20.78599 v 41.57197 h -20.78599 z"
     id="path614"
     style="stroke-width:1.18777" />
  <path
     d="m 476.94839,406.28951 h 20.78599 v 41.57198 h -20.78599 z"
     id="path616"
     style="stroke-width:1.18777" />
  <path
     d="m 476.94839,468.64748 h 20.78599 v 41.57198 h -20.78599 z"
     id="path618"
     style="stroke-width:1.18777" />
  <path
     d="m 476.94839,531.00545 h 20.78599 v 41.57198 h -20.78599 z"
     id="path620"
     style="stroke-width:1.18777" />
  <path
     d="m 636.62042,343.93155 c -30.74307,0 -55.74684,-25.00377 -55.74684,-55.74684 0,-14.89346 5.79965,-28.89134 16.3271,-39.41974 l 22.20062,-22.20062 c 20.86914,-20.86914 30.31548,-48.84708 28.52076,-76.22163 2.78389,-2.51475 5.68372,-4.88566 8.34682,-7.55351 l 7.22402,-7.21476 c 28.37228,-28.36278 28.37228,-74.537369 0,-102.900149 -28.37228,-28.3722811 -74.53737,-28.3722811 -102.90015,0 l -7.22402,7.214758 c -4.41708,4.417082 -8.49993,9.061385 -12.4811,13.803085 -21.51409,3.470547 -45.97979,18.539914 -60.89226,33.46663 L 389.49793,177.64316 H 71.614826 c -17.190607,0 -31.178984,13.98837 -31.178984,31.17898 v 415.71979 c 0,17.1906 13.988377,31.17898 31.178984,31.17898 H 508.1206 c 17.19061,0 31.17898,-13.98838 31.17898,-31.17898 V 217.29095 c 16.80459,-12.1699 32.343,-21.82529 45.16737,-27.14651 15.02767,-6.01772 29.06831,-13.77101 42.19318,-22.87409 -2.19465,16.3176 -9.45573,32.07457 -21.96901,44.59723 l -22.20063,22.20063 c -14.44329,14.44329 -22.40492,33.67093 -22.40492,54.11365 0,42.19318 34.32896,76.53282 76.53283,76.53282 h 48.18311 V 343.9287 Z m -52.33556,-248.541049 6.98279,-6.987418 13.43606,13.436067 c 1.03002,1.03002 1.93476,2.12967 2.89056,3.2014 l -6.82968,6.82968 c -2.20391,2.20391 -5.12227,3.41021 -8.24016,3.41021 -6.42133,0 -11.65037,-5.22893 -11.65037,-11.65037 0,-3.06683 1.24811,-6.068799 3.41021,-8.240163 z m 35.12713,-8.244792 -12.64738,-12.63907 c 1.2759,-0.477887 2.61678,-0.798039 4.03189,-0.798039 6.42133,0 11.65037,5.228923 11.65037,11.650369 0,1.45692 -0.32014,2.876662 -0.83979,4.217536 -0.75164,-0.798039 -1.41511,-1.651714 -2.19465,-2.431248 z M 494.68418,101.84437 c 6.74618,-6.746179 15.99333,-13.571467 25.64872,-18.832104 -5.36349,9.15415 -10.29096,18.590994 -14.258,28.538574 -7.4839,18.02085 -23.50955,41.39618 -43.03769,66.07925 h -44.13756 z m 23.82906,522.69043 c 0,5.73468 -4.66758,10.393 -10.393,10.393 H 71.61447 c -5.725412,0 -10.392995,-4.65832 -10.392995,-10.393 V 208.81501 c 0,-5.73467 4.667583,-10.39299 10.392995,-10.39299 h 374.44475 c -5.84146,6.94109 -11.82664,13.89573 -17.89496,20.78599 H 393.80205 V 239.994 h 15.69164 c -14.23899,15.58949 -28.21906,30.31547 -40.62532,43.11251 -4.90419,-0.91866 -9.85019,-1.54042 -14.86139,-1.54042 h -3.56331 c -21.73265,0 -42.16587,8.45824 -57.53681,23.82906 l -3.0344,3.0483 -3.04366,-3.04366 c -15.37094,-15.3757 -35.80535,-23.83381 -57.53681,-23.83381 h -3.56331 c -21.73264,0 -42.16586,8.45823 -57.53681,23.82905 -15.36262,15.36263 -23.82074,35.78635 -23.82074,57.5285 v 8.02208 c 0,25.40286 9.48827,49.66783 26.72009,68.34315 l 93.71275,101.51758 c 6.43534,6.97816 15.57048,10.97762 25.0679,10.97762 9.49741,0 18.63375,-3.99946 25.0774,-10.97299 L 408.6537,439.28032 c 17.23218,-18.65631 26.72009,-42.92247 26.72009,-68.32414 v -8.02208 c 0,-16.03491 -4.63503,-31.33696 -13.2092,-44.42976 28.11216,-26.94814 63.39727,-59.3149 96.35316,-85.39003 z M 310.65334,395.88892 c 21.74215,0 42.17537,-8.45824 57.69003,-23.99654 0.46861,-0.48717 15.73322,-16.3366 38.48615,-38.57048 5.0295,8.95009 7.75294,19.06016 7.75294,29.60163 v 8.02208 c 0,20.15053 -7.53498,39.41974 -21.2124,54.24312 l -93.70443,101.51758 c -5.03876,5.45639 -14.58226,5.45639 -19.61247,0 L 186.34873,425.19823 C 172.68462,410.37842 165.1494,391.1104 165.1494,370.95511 v -8.02208 c 0,-16.18338 6.29613,-31.39754 17.74292,-42.82983 11.44156,-11.45546 26.65476,-17.75123 42.83814,-17.75123 h 3.56331 c 16.18338,0 31.39754,6.29613 42.83815,17.74292 l 17.73342,17.73817 17.74292,-17.74293 c 11.33026,-11.31624 26.34475,-17.58494 42.34165,-17.71916 -15.2973,15.4137 -25.43017,25.16174 -25.85777,25.57864 -15.37569,15.37095 -23.83381,35.81367 -23.83381,57.54631 v 10.393 z M 576.60711,170.88949 c -72.62625,30.17176 -217.14826,180.24422 -223.11087,186.45626 -8.69021,8.69948 -19.5614,14.42548 -31.37853,16.67037 2.2456,-11.81737 7.93858,-22.65554 16.51239,-31.23006 6.37037,-6.11975 156.44129,-150.64497 186.68194,-223.39594 9.7573,-24.414626 24.145,-46.216159 42.73599,-64.821402 l 7.22402,-7.214757 c 10.13312,-10.133111 23.44423,-15.204654 36.76032,-15.204654 13.31135,0 26.62745,5.071187 36.76032,15.204654 20.26575,20.265746 20.26575,53.245389 0,73.512319 l -5.46564,5.46565 c -2.15284,-6.6394 -5.03876,-13.06548 -8.6345,-19.20863 5.38678,-5.92959 8.5371,-13.724691 8.5371,-21.769462 0,-17.886641 -14.55019,-32.436834 -32.43683,-32.436834 -8.66705,0 -16.81409,3.3684 -22.93823,9.497535 l -18.27148,18.271478 c -6.03625,6.040884 -9.49754,14.39697 -9.49754,22.938233 0,17.88664 14.5502,32.43683 32.43684,32.43683 8.66704,0 16.81408,-3.3684 22.93823,-9.49753 l 3.99019,-3.9902 c 3.04367,6.21727 5.28,12.72221 6.57919,19.40342 -14.88396,11.97986 -31.39754,21.70058 -49.41721,28.91035 z"
     id="path622"
     style="stroke-width:1.18777" />
</svg>
