<?xml version="1.0" encoding="UTF-8" standalone="no"?>
<svg
   width="700pt"
   height="700pt"
   version="1.1"
   viewBox="0 0 700 700"
   id="svg698"
   sodipodi:docname="study.svg"
   inkscape:version="1.2.2 (732a01da63, 2022-12-09)"
   xmlns:inkscape="http://www.inkscape.org/namespaces/inkscape"
   xmlns:sodipodi="http://sodipodi.sourceforge.net/DTD/sodipodi-0.dtd"
   xmlns="http://www.w3.org/2000/svg"
   xmlns:svg="http://www.w3.org/2000/svg">
  <defs
     id="defs702" />
  <sodipodi:namedview
     id="namedview700"
     pagecolor="#ffffff"
     bordercolor="#000000"
     borderopacity="0.25"
     inkscape:showpageshadow="2"
     inkscape:pageopacity="0.0"
     inkscape:pagecheckerboard="0"
     inkscape:deskcolor="#d1d1d1"
     inkscape:document-units="pt"
     showgrid="false"
     inkscape:zoom="0.86142857"
     inkscape:cx="466.66667"
     inkscape:cy="627.4461"
     inkscape:window-width="1920"
     inkscape:window-height="991"
     inkscape:window-x="-9"
     inkscape:window-y="-9"
     inkscape:window-maximized="1"
     inkscape:current-layer="svg698" />
  <path
     d="M 629.04578,195.28327 402.73323,51.698366 c -16.1553,-10.256044 -34.90012,-15.699938 -54.03834,-15.699938 -19.13821,0 -37.87727,5.443173 -54.03833,15.694174 L 68.344009,195.28327 c -19.442273,12.33875 -31.224071,33.76315 -31.224071,56.78492 0,23.02178 11.78151,44.4469 31.224071,56.77916 l 85.043371,53.95332 -6.42826,-4.07536 v 131.14456 c 0,23.02754 11.78151,44.45266 31.22407,56.78493 l 116.48072,73.90282 c 16.16106,10.25043 34.90012,15.69418 54.03833,15.69418 19.13822,0 37.87727,-5.44318 54.03834,-15.69418 L 519.22129,546.6548 h 0.006 C 538.6638,534.32166 550.4456,512.89741 550.4456,489.86987 V 358.72531 l 67.24963,-42.66146 v 187.46259 c 0,9.28782 7.52603,16.81385 16.80808,16.81385 9.28782,0 16.81385,-7.52603 16.81385,-16.81385 V 285.31243 c 8.58417,-14.98951 11.06662,-32.70976 6.91806,-49.47894 -4.14294,-16.76917 -14.59035,-31.2918 -29.17494,-40.55757 z m -112.2369,184.78229 v 109.81022 c 0.0281,11.52256 -5.86539,22.2465 -15.61492,28.39246 l -116.48071,73.90283 c -10.77395,6.83362 -23.26531,10.46427 -36.02556,10.46427 -12.75535,0 -25.25103,-3.63065 -36.02556,-10.46427 L 196.17565,518.26824 c -9.74376,-6.14682 -15.63797,-16.87005 -15.60915,-28.39246 V 380.06556 l 114.08285,72.37822 c 16.16107,10.25043 34.90012,15.69418 54.03834,15.69418 19.13822,0 37.87727,-5.44318 54.03834,-15.69418 z m 94.22989,-99.6049 -226.32696,143.59066 c -10.77395,6.83362 -23.26963,10.46427 -36.02556,10.46427 -12.76097,0 -25.25104,-3.63065 -36.02556,-10.46427 L 86.333731,280.46642 v -0.006 c -9.71566,-6.16368 -15.603389,-16.87581 -15.603389,-28.3867 0,-11.51088 5.887873,-22.22344 15.609153,-28.39246 L 312.66646,80.090968 h -0.006 c 10.77394,-6.83362 23.26962,-10.46428 36.02555,-10.46428 12.76098,0 25.2568,3.63066 36.02556,10.4699 L 611.03853,223.68149 c 9.72128,6.1693 15.60916,16.88157 15.60916,28.39246 0,11.51089 -5.88788,22.22345 -15.60916,28.3867 z"
     id="path696"
     style="stroke-width:1.44102" />
</svg>
