<?xml version="1.0" encoding="UTF-8" standalone="no"?>
<svg
   width="700pt"
   height="700pt"
   version="1.1"
   viewBox="0 0 700 700"
   id="svg1061"
   sodipodi:docname="user.svg"
   inkscape:version="1.2.2 (732a01da63, 2022-12-09)"
   xmlns:inkscape="http://www.inkscape.org/namespaces/inkscape"
   xmlns:sodipodi="http://sodipodi.sourceforge.net/DTD/sodipodi-0.dtd"
   xmlns="http://www.w3.org/2000/svg"
   xmlns:svg="http://www.w3.org/2000/svg">
  <sodipodi:namedview
     id="namedview1063"
     pagecolor="#ffffff"
     bordercolor="#000000"
     borderopacity="0.25"
     inkscape:showpageshadow="2"
     inkscape:pageopacity="0.0"
     inkscape:pagecheckerboard="0"
     inkscape:deskcolor="#d1d1d1"
     inkscape:document-units="pt"
     showgrid="false"
     inkscape:zoom="0.86142857"
     inkscape:cx="466.66667"
     inkscape:cy="452.15589"
     inkscape:window-width="1920"
     inkscape:window-height="991"
     inkscape:window-x="-9"
     inkscape:window-y="-9"
     inkscape:window-maximized="1"
     inkscape:current-layer="svg1061" />
  <defs
     id="defs1021">
    <symbol
       id="n"
       overflow="visible">
      <path
         d="m37.516-2.25c-1.9297 1.0117-3.9453 1.7734-6.0469 2.2812-2.0938 0.50781-4.2812 0.76562-6.5625 0.76562-6.793 0-12.18-1.8984-16.156-5.7031-3.9688-3.8008-5.9531-8.957-5.9531-15.469 0-6.5195 1.9844-11.68 5.9531-15.484 3.9766-3.8008 9.3633-5.7031 16.156-5.7031 2.2812 0 4.4688 0.25781 6.5625 0.76562 2.1016 0.51172 4.1172 1.2656 6.0469 2.2656v8.4531c-1.9492-1.332-3.8711-2.3047-5.7656-2.9219-1.8984-0.625-3.8906-0.9375-5.9844-0.9375-3.7617 0-6.7188 1.2031-8.875 3.6094-2.1484 2.4062-3.2188 5.7266-3.2188 9.9531 0 4.2109 1.0703 7.5156 3.2188 9.9219 2.1562 2.4062 5.1133 3.6094 8.875 3.6094 2.0938 0 4.0859-0.30469 5.9844-0.92188 1.8945-0.625 3.8164-1.5977 5.7656-2.9219z"
         id="path979" />
    </symbol>
    <symbol
       id="h"
       overflow="visible">
      <path
         d="m27.453-22.281c-0.85547-0.40625-1.7109-0.70312-2.5625-0.89062-0.84375-0.19531-1.6953-0.29688-2.5469-0.29688-2.5234 0-4.4609 0.80859-5.8125 2.4219-1.3555 1.6172-2.0312 3.9297-2.0312 6.9375v14.109h-9.7969v-30.625h9.7969v5.0312c1.25-2.0078 2.6914-3.4727 4.3281-4.3906 1.6328-0.91406 3.5859-1.375 5.8594-1.375 0.33203 0 0.6875 0.015625 1.0625 0.046875 0.38281 0.023438 0.94141 0.078125 1.6719 0.17188z"
         id="path982" />
    </symbol>
    <symbol
       id="a"
       overflow="visible">
      <path
         d="m35.281-15.391v2.7812h-22.891c0.23828 2.3047 1.0664 4.0273 2.4844 5.1719 1.4258 1.1484 3.4141 1.7188 5.9688 1.7188 2.0508 0 4.1562-0.30078 6.3125-0.90625 2.1641-0.61328 4.3906-1.5391 6.6719-2.7812v7.5469c-2.3125 0.875-4.6328 1.5391-6.9531 1.9844-2.3125 0.44531-4.625 0.67188-6.9375 0.67188-5.543 0-9.8516-1.4062-12.922-4.2188-3.0742-2.8203-4.6094-6.7734-4.6094-11.859 0-5 1.5039-8.9258 4.5156-11.781 3.0195-2.8633 7.1758-4.2969 12.469-4.2969 4.8125 0 8.6602 1.4492 11.547 4.3438 2.8945 2.8984 4.3438 6.7734 4.3438 11.625zm-10.062-3.2656c0-1.8516-0.54688-3.3477-1.6406-4.4844-1.0859-1.1445-2.5-1.7188-4.25-1.7188-1.8984 0-3.4375 0.53906-4.625 1.6094-1.1797 1.0625-1.9141 2.5938-2.2031 4.5938z"
         id="path985" />
    </symbol>
    <symbol
       id="g"
       overflow="visible">
      <path
         d="m18.438-13.781c-2.043 0-3.5781 0.35156-4.6094 1.0469-1.0312 0.6875-1.5469 1.7031-1.5469 3.0469 0 1.2422 0.41016 2.2148 1.2344 2.9219 0.83203 0.69922 1.9883 1.0469 3.4688 1.0469 1.8438 0 3.3906-0.66016 4.6406-1.9844 1.2578-1.3203 1.8906-2.9727 1.8906-4.9531v-1.125zm14.953-3.6875v17.469h-9.875v-4.5469c-1.3125 1.8672-2.793 3.2266-4.4375 4.0781-1.6367 0.84375-3.6328 1.2656-5.9844 1.2656-3.168 0-5.7422-0.92578-7.7188-2.7812-1.9805-1.8516-2.9688-4.2539-2.9688-7.2031 0-3.5938 1.2344-6.2266 3.7031-7.9062 2.4688-1.6758 6.3477-2.5156 11.641-2.5156h5.7656v-0.76562c0-1.5508-0.60938-2.6875-1.8281-3.4062s-3.125-1.0781-5.7188-1.0781c-2.0938 0-4.0469 0.21484-5.8594 0.64062-1.8047 0.41797-3.4766 1.043-5.0156 1.875v-7.4688c2.0938-0.50781 4.1953-0.89453 6.3125-1.1562 2.1133-0.25781 4.2266-0.39062 6.3438-0.39062 5.5195 0 9.5039 1.0898 11.953 3.2656 2.457 2.1797 3.6875 5.7188 3.6875 10.625z"
         id="path988" />
    </symbol>
    <symbol
       id="f"
       overflow="visible">
      <path
         d="m15.391-39.328v8.7031h10.094v7h-10.094v12.984c0 1.4297 0.28125 2.3906 0.84375 2.8906 0.57031 0.5 1.6953 0.75 3.375 0.75h5.0312v7h-8.3906c-3.8672 0-6.6055-0.80469-8.2188-2.4219-1.6172-1.6133-2.4219-4.3516-2.4219-8.2188v-12.984h-4.875v-7h4.875v-8.7031z"
         id="path991" />
    </symbol>
    <symbol
       id="e"
       overflow="visible">
      <path
         d="m25.547-26.141v-16.406h9.8438v42.547h-9.8438v-4.4375c-1.3555 1.8125-2.8438 3.1406-4.4688 3.9844-1.6172 0.83203-3.4922 1.25-5.625 1.25-3.7734 0-6.8711-1.5-9.2969-4.5-2.4297-3-3.6406-6.8594-3.6406-11.578 0-4.7266 1.2109-8.5859 3.6406-11.578 2.4258-3 5.5234-4.5 9.2969-4.5 2.1133 0 3.9844 0.42188 5.6094 1.2656 1.6328 0.84375 3.1289 2.1641 4.4844 3.9531zm-6.4531 19.828c2.0938 0 3.6914-0.76562 4.7969-2.2969 1.1016-1.5312 1.6562-3.7539 1.6562-6.6719 0-2.9141-0.55469-5.1406-1.6562-6.6719-1.1055-1.5312-2.7031-2.2969-4.7969-2.2969-2.0859 0-3.6797 0.76562-4.7812 2.2969-1.1055 1.5312-1.6562 3.7578-1.6562 6.6719 0 2.918 0.55078 5.1406 1.6562 6.6719 1.1016 1.5312 2.6953 2.2969 4.7812 2.2969z"
         id="path994" />
    </symbol>
    <symbol
       id="d"
       overflow="visible">
      <path
         d="m21-6.3125c2.0938 0 3.6914-0.76562 4.7969-2.2969 1.1016-1.5312 1.6562-3.7539 1.6562-6.6719 0-2.9141-0.55469-5.1406-1.6562-6.6719-1.1055-1.5312-2.7031-2.2969-4.7969-2.2969s-3.7031 0.77344-4.8281 2.3125c-1.1172 1.5312-1.6719 3.75-1.6719 6.6562 0 2.8984 0.55469 5.1172 1.6719 6.6562 1.125 1.543 2.7344 2.3125 4.8281 2.3125zm-6.5-19.828c1.3438-1.7891 2.832-3.1094 4.4688-3.9531 1.6445-0.84375 3.5352-1.2656 5.6719-1.2656 3.7695 0 6.8672 1.5 9.2969 4.5 2.4258 2.9922 3.6406 6.8516 3.6406 11.578 0 4.7188-1.2148 8.5781-3.6406 11.578-2.4297 3-5.5273 4.5-9.2969 4.5-2.1367 0-4.0273-0.42188-5.6719-1.2656-1.6367-0.85156-3.125-2.1758-4.4688-3.9688v4.4375h-9.7969v-42.547h9.7969z"
         id="path997" />
    </symbol>
    <symbol
       id="c"
       overflow="visible">
      <path
         d="m0.6875-30.625h9.7812l8.2344 20.781 7-20.781h9.7969l-12.891 33.531c-1.293 3.4062-2.8047 5.7852-4.5312 7.1406-1.7188 1.3633-3.9922 2.0469-6.8125 2.0469h-5.6562v-6.4375h3.0625c1.6562 0 2.8594-0.26562 3.6094-0.79688 0.75781-0.52344 1.3516-1.4648 1.7812-2.8281l0.26562-0.85938z"
         id="path1000" />
    </symbol>
    <symbol
       id="b"
       overflow="visible">
      <path
         d="m0.28125-40.828h37.625v7.9531h-13.547v32.875h-10.516v-32.875h-13.562z"
         id="path1003" />
    </symbol>
    <symbol
       id="m"
       overflow="visible">
      <path
         d="m34.531-30.625v30.625h-9.7812v-16.297l-9.875 16.297h-10.172v-30.625h9.7969v16.297l9.8594-16.297z"
         id="path1006" />
    </symbol>
    <symbol
       id="l"
       overflow="visible">
      <path
         d="m4.7031-30.625h11.266l6.8906 15.312 6.8906-15.312h11.297v30.625h-9.7656v-17.359l-5.1719 11.484h-6.4219l-5.1875-11.484v17.359h-9.7969z"
         id="path1009" />
    </symbol>
    <symbol
       id="k"
       overflow="visible">
      <path
         d="m0.6875-30.625h9.7812l8.2344 20.781 7-20.781h9.7969l-12.891 33.531c-1.293 3.4062-2.8047 5.7852-4.5312 7.1406-1.7188 1.3633-3.9922 2.0469-6.8125 2.0469h-5.6562v-6.4375h3.0625c1.6562 0 2.8594-0.26562 3.6094-0.79688 0.75781-0.52344 1.3516-1.4648 1.7812-2.8281l0.26562-0.85938z"
         id="path1012" />
    </symbol>
    <symbol
       id="j"
       overflow="visible">
      <path
         d="m14.5-4.4375v16.094h-9.7969v-42.281h9.7969v4.4844c1.3438-1.7891 2.832-3.1094 4.4688-3.9531 1.6445-0.84375 3.5352-1.2656 5.6719-1.2656 3.7695 0 6.8672 1.5 9.2969 4.5 2.4258 2.9922 3.6406 6.8516 3.6406 11.578 0 4.7188-1.2148 8.5781-3.6406 11.578-2.4297 3-5.5273 4.5-9.2969 4.5-2.1367 0-4.0273-0.42188-5.6719-1.2656-1.6367-0.85156-3.125-2.1758-4.4688-3.9688zm6.5-19.812c-2.0938 0-3.7031 0.77344-4.8281 2.3125-1.1172 1.5312-1.6719 3.75-1.6719 6.6562 0 2.8984 0.55469 5.1172 1.6719 6.6562 1.125 1.543 2.7344 2.3125 4.8281 2.3125s3.6914-0.76562 4.7969-2.2969c1.1016-1.5312 1.6562-3.7539 1.6562-6.6719 0-2.9141-0.55469-5.1406-1.6562-6.6719-1.1055-1.5312-2.7031-2.2969-4.7969-2.2969z"
         id="path1015" />
    </symbol>
    <symbol
       id="i"
       overflow="visible">
      <path
         d="m5.1406-40.828h13.406l9.2969 21.844 9.3438-21.844h13.375v40.828h-9.9531v-29.859l-9.4062 22.016h-6.6719l-9.4062-22.016v29.859h-9.9844z"
         id="path1018" />
    </symbol>
  </defs>
  <path
     d="m 355.22388,680.14925 c 181.08652,0 327.88557,-146.79905 327.88557,-327.88557 0,-181.08652 -146.79905,-327.88557 -327.88557,-327.88557 -181.08652,0 -327.885571,146.79905 -327.885571,327.88557 0,181.08652 146.799051,327.88557 327.885571,327.88557 z m 0,-26.2285 c 166.601,0 301.65472,-135.05372 301.65472,-301.65473 0,-166.601 -135.05372,-301.654722 -301.65472,-301.654722 -166.601,0 -301.654725,135.053722 -301.654725,301.654722 0,166.60101 135.053725,301.65473 301.654725,301.65473 z"
     fill-rule="evenodd"
     id="path1023"
     style="stroke-width:1.17102" />
  <path
     d="M 571.97966,588.34129 C 548.38947,490.51546 460.29364,417.8408 355.22388,417.8408 c -105.06976,0 -193.15973,72.67583 -216.75578,170.50049 h 27.09388 c 22.95785,-83.18339 99.17485,-144.26965 189.65838,-144.26965 90.48354,0 166.7064,61.08977 189.65839,144.26965 z"
     fill-rule="evenodd"
     id="path1025"
     style="stroke-width:1.17102" />
  <path
     d="m 355.22388,378.49453 c 57.94675,0 104.92572,-46.97312 104.92572,-104.92104 0,-57.94792 -46.9778,-104.92573 -104.92572,-104.92573 -57.94792,0 -104.92573,46.97781 -104.92573,104.92573 0,57.94792 46.97781,104.92104 104.92573,104.92104 z m 0,-26.22851 c 43.46006,0 78.69136,-35.2313 78.69136,-78.69136 0,-43.46006 -35.2313,-78.69137 -78.69136,-78.69137 -43.46006,0 -78.69137,35.23131 -78.69137,78.69137 0,43.46006 35.23131,78.69136 78.69137,78.69136 z"
     fill-rule="evenodd"
     id="path1027"
     style="stroke-width:1.17102" />
</svg>
