<?xml version="1.0" encoding="UTF-8" standalone="no"?>
<svg
   width="700pt"
   height="700pt"
   version="1.1"
   viewBox="0 0 700 700"
   id="svg1202"
   sodipodi:docname="yoga.svg"
   inkscape:version="1.2.2 (732a01da63, 2022-12-09)"
   xmlns:inkscape="http://www.inkscape.org/namespaces/inkscape"
   xmlns:sodipodi="http://sodipodi.sourceforge.net/DTD/sodipodi-0.dtd"
   xmlns="http://www.w3.org/2000/svg"
   xmlns:svg="http://www.w3.org/2000/svg">
  <sodipodi:namedview
     id="namedview1204"
     pagecolor="#ffffff"
     bordercolor="#000000"
     borderopacity="0.25"
     inkscape:showpageshadow="2"
     inkscape:pageopacity="0.0"
     inkscape:pagecheckerboard="0"
     inkscape:deskcolor="#d1d1d1"
     inkscape:document-units="pt"
     showgrid="false"
     inkscape:zoom="0.86142857"
     inkscape:cx="466.66667"
     inkscape:cy="738.88889"
     inkscape:window-width="1920"
     inkscape:window-height="991"
     inkscape:window-x="-9"
     inkscape:window-y="-9"
     inkscape:window-maximized="1"
     inkscape:current-layer="svg1202" />
  <defs
     id="defs1156">
    <symbol
       id="m"
       overflow="visible">
      <path
         d="m29.312-1.75c-1.5117 0.78125-3.0898 1.3711-4.7344 1.7656-1.6367 0.40625-3.3398 0.60938-5.1094 0.60938-5.3125 0-9.5273-1.4844-12.641-4.4531-3.1055-2.9688-4.6562-7-4.6562-12.094s1.5508-9.125 4.6562-12.094c3.1133-2.9688 7.3281-4.4531 12.641-4.4531 1.7695 0 3.4727 0.19922 5.1094 0.59375 1.6445 0.39844 3.2227 0.99219 4.7344 1.7812v6.5938c-1.5312-1.0391-3.0391-1.8008-4.5156-2.2812-1.4805-0.48828-3.0391-0.73438-4.6719-0.73438-2.9375 0-5.2461 0.94531-6.9219 2.8281-1.6797 1.875-2.5156 4.4648-2.5156 7.7656 0 3.293 0.83594 5.8828 2.5156 7.7656 1.6758 1.875 3.9844 2.8125 6.9219 2.8125 1.6328 0 3.1914-0.23828 4.6719-0.71875 1.4766-0.48828 2.9844-1.2539 4.5156-2.2969z"
         id="path1117" />
    </symbol>
    <symbol
       id="h"
       overflow="visible">
      <path
         d="m21.453-17.406c-0.67969-0.3125-1.3516-0.53906-2.0156-0.6875-0.65625-0.15625-1.3203-0.23438-1.9844-0.23438-1.9688 0-3.4844 0.63281-4.5469 1.8906-1.0547 1.2617-1.5781 3.0703-1.5781 5.4219v11.016h-7.6562v-23.922h7.6562v3.9219c0.97656-1.5625 2.1016-2.7031 3.375-3.4219 1.2812-0.71875 2.8125-1.0781 4.5938-1.0781 0.25 0 0.52344 0.011719 0.82812 0.03125 0.30078 0.023438 0.73438 0.070312 1.2969 0.14062z"
         id="path1120" />
    </symbol>
    <symbol
       id="c"
       overflow="visible">
      <path
         d="m27.562-12.031v2.1875h-17.891c0.1875 1.793 0.83203 3.1367 1.9375 4.0312 1.1133 0.89844 2.6719 1.3438 4.6719 1.3438 1.6016 0 3.25-0.23438 4.9375-0.70312 1.6875-0.47656 3.4219-1.2031 5.2031-2.1719v5.8906c-1.8047 0.6875-3.6094 1.2031-5.4219 1.5469-1.8125 0.35156-3.6211 0.53125-5.4219 0.53125-4.3359 0-7.7031-1.0977-10.109-3.2969-2.3984-2.207-3.5938-5.2969-3.5938-9.2656 0-3.9062 1.1758-6.9727 3.5312-9.2031 2.3633-2.2383 5.6094-3.3594 9.7344-3.3594 3.7578 0 6.7695 1.1367 9.0312 3.4062 2.2578 2.2617 3.3906 5.2812 3.3906 9.0625zm-7.8594-2.5312c0-1.457-0.42969-2.6289-1.2812-3.5156-0.84375-0.89453-1.9492-1.3438-3.3125-1.3438-1.4922 0-2.6992 0.41797-3.625 1.25-0.91797 0.83594-1.4922 2.0391-1.7188 3.6094z"
         id="path1123" />
    </symbol>
    <symbol
       id="b"
       overflow="visible">
      <path
         d="m14.391-10.766c-1.5938 0-2.793 0.27344-3.5938 0.8125-0.80469 0.54297-1.2031 1.3398-1.2031 2.3906 0 0.96875 0.32031 1.7305 0.96875 2.2812 0.64453 0.54297 1.5469 0.8125 2.7031 0.8125 1.4375 0 2.6445-0.51562 3.625-1.5469 0.98828-1.0312 1.4844-2.3203 1.4844-3.875v-0.875zm11.688-2.8906v13.656h-7.7031v-3.5469c-1.0312 1.4492-2.1875 2.5078-3.4688 3.1719s-2.8398 1-4.6719 1c-2.4805 0-4.4961-0.72266-6.0469-2.1719-1.543-1.4453-2.3125-3.3203-2.3125-5.625 0-2.8125 0.96094-4.8672 2.8906-6.1719 1.9375-1.3125 4.9688-1.9688 9.0938-1.9688h4.5156v-0.60938c0-1.207-0.48047-2.0938-1.4375-2.6562-0.94922-0.5625-2.4375-0.84375-4.4688-0.84375-1.6367 0-3.1562 0.16797-4.5625 0.5-1.4062 0.32422-2.7188 0.8125-3.9375 1.4688v-5.8281c1.6445-0.40625 3.2891-0.70703 4.9375-0.90625 1.6562-0.20703 3.3047-0.3125 4.9531-0.3125 4.3203 0 7.4375 0.85547 9.3438 2.5625 1.9141 1.6992 2.875 4.4609 2.875 8.2812z"
         id="path1126" />
    </symbol>
    <symbol
       id="g"
       overflow="visible">
      <path
         d="m12.031-30.719v6.7969h7.875v5.4688h-7.875v10.141c0 1.1172 0.21875 1.8711 0.65625 2.2656 0.4375 0.38672 1.3125 0.57812 2.625 0.57812h3.9375v5.4688h-6.5625c-3.0234 0-5.1641-0.62891-6.4219-1.8906-1.2617-1.2578-1.8906-3.3984-1.8906-6.4219v-10.141h-3.7969v-5.4688h3.7969v-6.7969z"
         id="path1129" />
    </symbol>
    <symbol
       id="f"
       overflow="visible">
      <path
         d="m19.953-20.422v-12.812h7.6875v33.234h-7.6875v-3.4531c-1.0547 1.4062-2.2148 2.4375-3.4844 3.0938-1.2734 0.65625-2.7422 0.98438-4.4062 0.98438-2.9492 0-5.3711-1.1719-7.2656-3.5156-1.8867-2.3438-2.8281-5.3594-2.8281-9.0469s0.94141-6.7031 2.8281-9.0469c1.8945-2.3438 4.3164-3.5156 7.2656-3.5156 1.6562 0 3.1172 0.33594 4.3906 1 1.2812 0.65625 2.4453 1.6836 3.5 3.0781zm-5.0469 15.484c1.6445 0 2.8945-0.59766 3.75-1.7969 0.86328-1.1953 1.2969-2.9297 1.2969-5.2031 0-2.2812-0.43359-4.0195-1.2969-5.2188-0.85547-1.1953-2.1055-1.7969-3.75-1.7969-1.625 0-2.8711 0.60156-3.7344 1.7969-0.85547 1.1992-1.2812 2.9375-1.2812 5.2188 0 2.2734 0.42578 4.0078 1.2812 5.2031 0.86328 1.1992 2.1094 1.7969 3.7344 1.7969z"
         id="path1132" />
    </symbol>
    <symbol
       id="e"
       overflow="visible">
      <path
         d="m16.406-4.9375c1.6328 0 2.8828-0.59766 3.75-1.7969 0.86328-1.1953 1.2969-2.9297 1.2969-5.2031 0-2.2812-0.43359-4.0195-1.2969-5.2188-0.86719-1.1953-2.1172-1.7969-3.75-1.7969-1.6367 0-2.8906 0.60547-3.7656 1.8125-0.875 1.1992-1.3125 2.9336-1.3125 5.2031 0 2.2617 0.4375 3.9961 1.3125 5.2031 0.875 1.1992 2.1289 1.7969 3.7656 1.7969zm-5.0781-15.484c1.0508-1.3945 2.2188-2.4219 3.5-3.0781 1.2812-0.66406 2.7539-1 4.4219-1 2.9453 0 5.3672 1.1719 7.2656 3.5156 1.8945 2.3438 2.8438 5.3594 2.8438 9.0469s-0.94922 6.7031-2.8438 9.0469c-1.8984 2.3438-4.3203 3.5156-7.2656 3.5156-1.668 0-3.1406-0.33594-4.4219-1s-2.4492-1.6914-3.5-3.0781v3.4531h-7.6562v-33.234h7.6562z"
         id="path1135" />
    </symbol>
    <symbol
       id="a"
       overflow="visible">
      <path
         d="m0.53125-23.922h7.6562l6.4219 16.234 5.4688-16.234h7.6562l-10.062 26.188c-1.0117 2.6641-2.1953 4.5234-3.5469 5.5781-1.3438 1.0625-3.1211 1.5938-5.3281 1.5938h-4.4219v-5.0156h2.3906c1.3008 0 2.2422-0.21094 2.8281-0.625 0.59375-0.40625 1.0547-1.1484 1.3906-2.2188l0.20312-0.65625z"
         id="path1138" />
    </symbol>
    <symbol
       id="d"
       overflow="visible">
      <path
         d="m4.0156-31.891h22.203v6.2188h-13.984v5.9375h13.141v6.2188h-13.141v7.2969h14.453v6.2188h-22.672z"
         id="path1141" />
    </symbol>
    <symbol
       id="l"
       overflow="visible">
      <path
         d="m3.4219-9.3125v-14.609h7.6875v2.3906c0 1.293-0.011719 2.918-0.03125 4.875-0.011719 1.9609-0.015625 3.2656-0.015625 3.9219 0 1.9297 0.046875 3.3125 0.14062 4.1562 0.10156 0.84375 0.28125 1.4609 0.53125 1.8438 0.3125 0.5 0.71875 0.88672 1.2188 1.1562 0.50781 0.27344 1.0938 0.40625 1.75 0.40625 1.5938 0 2.8438-0.60938 3.75-1.8281 0.91406-1.2266 1.375-2.9297 1.375-5.1094v-11.812h7.6406v23.922h-7.6406v-3.4531c-1.1562 1.3867-2.3828 2.4141-3.6719 3.0781-1.2812 0.66406-2.6992 1-4.25 1-2.7734 0-4.8828-0.84766-6.3281-2.5469-1.4375-1.6953-2.1562-4.1602-2.1562-7.3906z"
         id="path1144" />
    </symbol>
    <symbol
       id="k"
       overflow="visible">
      <path
         d="m23-23.172v6.2344c-1.0312-0.71875-2.0742-1.2422-3.125-1.5781-1.043-0.34375-2.125-0.51562-3.25-0.51562-2.1367 0-3.8047 0.625-5 1.875-1.1875 1.2422-1.7812 2.9805-1.7812 5.2188 0 2.2305 0.59375 3.9688 1.7812 5.2188 1.1953 1.25 2.8633 1.875 5 1.875 1.1953 0 2.332-0.17578 3.4062-0.53125 1.0703-0.36328 2.0625-0.89453 2.9688-1.5938v6.2656c-1.1875 0.4375-2.4023 0.76562-3.6406 0.98438-1.2305 0.22656-2.4648 0.34375-3.7031 0.34375-4.3125 0-7.6875-1.1094-10.125-3.3281s-3.6562-5.2969-3.6562-9.2344c0-3.9453 1.2188-7.0234 3.6562-9.2344 2.4375-2.2188 5.8125-3.3281 10.125-3.3281 1.25 0 2.4844 0.10938 3.7031 0.32812s2.4297 0.55469 3.6406 1z"
         id="path1147" />
    </symbol>
    <symbol
       id="j"
       overflow="visible">
      <path
         d="m3.6719-33.234h7.6562v33.234h-7.6562z"
         id="path1150" />
    </symbol>
    <symbol
       id="i"
       overflow="visible">
      <path
         d="m11.328-3.4531v12.547h-7.6562v-33.016h7.6562v3.5c1.0508-1.3945 2.2188-2.4219 3.5-3.0781 1.2812-0.66406 2.7539-1 4.4219-1 2.9453 0 5.3672 1.1719 7.2656 3.5156 1.8945 2.3438 2.8438 5.3594 2.8438 9.0469s-0.94922 6.7031-2.8438 9.0469c-1.8984 2.3438-4.3203 3.5156-7.2656 3.5156-1.668 0-3.1406-0.33594-4.4219-1s-2.4492-1.6914-3.5-3.0781zm5.0781-15.5c-1.6367 0-2.8906 0.60547-3.7656 1.8125-0.875 1.1992-1.3125 2.9336-1.3125 5.2031 0 2.2617 0.4375 3.9961 1.3125 5.2031 0.875 1.1992 2.1289 1.7969 3.7656 1.7969 1.6328 0 2.8828-0.59766 3.75-1.7969 0.86328-1.1953 1.2969-2.9297 1.2969-5.2031 0-2.2812-0.43359-4.0195-1.2969-5.2188-0.86719-1.1953-2.1172-1.7969-3.75-1.7969z"
         id="path1153" />
    </symbol>
  </defs>
  <path
     d="m 502.94894,492.69483 h -53.5096 V 377.66815 l 66.74818,-123.98327 c 5.34142,-9.89933 8.16501,-21.08339 8.16501,-32.3308 0,-21.0308 -9.9518,-41.24581 -26.61659,-54.05387 L 383.3734,79.329212 367.86479,40.568695 c -4.56746,-11.39944 -15.44134,-18.761994 -27.70513,-18.761994 -7.31938,0 -13.94063,2.751922 -19.1436,7.137752 -5.20284,-4.38583 -11.8247,-7.137752 -19.14359,-7.137752 -12.26379,0 -23.13816,7.362309 -27.71981,18.761994 L 258.65384,79.320651 144.29129,167.29165 c -16.65952,12.81784 -26.6117,33.02307 -26.6117,54.06365 0,11.24656 2.8236,22.43123 8.15548,32.33081 l 66.75796,123.98326 v 115.02668 h -53.5096 c -53.113322,0 -96.317275,43.21374 -96.317275,96.31728 0,53.10353 43.203953,96.31727 96.317275,96.31727 h 363.86526 c 53.11333,0 96.31728,-43.21374 96.31728,-96.31727 0,-53.10354 -43.20395,-96.31728 -96.31728,-96.31728 z M 340.15746,43.214209 c 3.46852,0 6.55018,2.087792 7.83527,5.307908 l 17.66734,44.198316 119.01635,91.553387 c 11.44249,8.77656 18.27032,22.64649 18.27032,37.08368 0,7.7159 -1.93491,15.38875 -5.59937,22.18783 l -22.24898,41.33143 -28.07328,-14.03236 c 1.44763,-4.30462 2.41276,-8.81948 2.41276,-13.59205 v -21.40384 c 0,-67.19704 -51.90492,-122.40549 -117.72111,-127.87265 V 51.661754 c 0,-4.653439 3.78872,-8.442041 8.44204,-8.442041 z m -19.1436,299.653741 c -41.2984,0 -74.91343,-33.60647 -74.91343,-74.91343 v -27.677 c 0,-6.90366 2.68502,-13.38657 7.56778,-18.27032 4.878,-4.87799 11.37559,-7.56301 18.26543,-7.56301 18.10764,0 35.27352,-6.17275 49.08083,-17.50957 13.8171,11.34685 30.98298,17.50957 49.08084,17.50957 6.90366,0 13.38657,2.68502 18.27032,7.57732 4.87799,4.86846 7.56301,11.35651 7.56301,18.25564 v 27.677 c 0,41.30696 -33.61503,74.91344 -74.91343,74.91344 z m 26.84042,17.51935 c -5.73795,8.76224 -15.60401,14.58641 -26.84042,14.58641 -11.2364,0 -21.10296,-5.82392 -26.84041,-14.58641 8.52814,2.48431 17.51935,3.88425 26.84041,3.88425 9.32107,0 18.31313,-1.39981 26.84042,-3.88425 z M 370.0947,193.04597 c -14.98269,0 -29.0762,-5.83346 -39.68272,-16.44915 l -9.39763,-9.36412 -9.40717,9.37378 c -10.59686,10.6064 -24.69147,16.43937 -39.67416,16.43937 -12.61725,0 -24.4762,4.91139 -33.40099,13.82688 -2.41754,2.41753 -4.48625,5.08335 -6.29212,7.88787 -6.09153,0.4491 -11.77211,2.14992 -16.88946,4.8923 7.84493,-51.3264 52.17155,-90.81832 105.6628,-90.81832 53.49125,0 97.81799,39.49192 105.6628,90.82811 -5.11686,-2.73762 -10.79744,-4.4432 -16.88946,-4.89231 -1.81077,-2.80451 -3.87471,-5.47045 -6.29212,-7.88786 -8.92466,-8.92467 -20.78251,-13.83545 -33.40099,-13.83545 z m -144.99572,82.85365 c -6.59312,-3.65015 -11.10798,-10.59685 -11.10798,-18.64213 0,-7.95 4.4098,-14.81023 10.85003,-18.50392 -0.0191,0.51599 -0.1481,1.00808 -0.1481,1.52884 v 27.677 c 0,2.68502 0.18155,5.31757 0.4061,7.94046 z m 192.08416,-37.14605 c 6.44024,3.69308 10.85004,10.5538 10.85004,18.50392 0,8.04552 -4.51487,14.99247 -11.10798,18.64213 0.22454,-2.62289 0.4061,-5.25544 0.4061,-7.94045 v -27.677 c 0,-0.52076 -0.129,-1.01286 -0.14811,-1.52885 z M 139.08001,221.36264 c 0,-14.43842 6.82721,-28.29832 18.25564,-37.09346 L 276.352,92.724346 294.01078,48.535815 c 1.30906,-3.229656 4.3906,-5.31757 7.85924,-5.31757 4.65344,0 8.44204,3.788724 8.44204,8.442041 v 56.314104 c -65.81619,5.47046 -117.72111,60.6805 -117.72111,127.87266 v 21.40384 c 0,4.77281 0.96508,9.28779 2.41753,13.58226 l -28.07327,14.04092 -22.25877,-41.34121 c -3.65969,-6.79859 -5.5946,-14.46166 -5.5946,-22.17805 z m 38.00098,82.37176 29.70731,-14.85427 c 6.35902,5.74748 14.39561,9.53621 23.32896,10.65887 7.00884,20.11839 20.45351,37.23167 37.93983,48.78975 2.77578,26.91746 25.32136,48.05345 52.95555,48.05345 27.63419,0 50.17916,-21.13599 52.95554,-48.05345 17.48633,-11.5571 30.93038,-28.67014 37.93984,-48.78975 8.92466,-1.11319 16.97507,-4.90185 23.32896,-10.65887 l 29.7073,14.85427 -36.91245,68.54977 V 492.69972 H 213.99344 V 372.28417 Z m 97.034,295.98451 18.87697,-37.74291 c 1.55269,-3.12937 4.6916,-5.06427 8.17932,-5.06427 5.03088,0 9.13968,4.09926 9.13968,9.13968 v 97.87914 h -64.21151 v -64.21151 z m 57.59957,-33.66762 c 0,-5.04042 4.1088,-9.13969 9.13968,-9.13969 3.47819,0 6.6122,1.93491 8.17456,5.04996 l 18.88185,37.7576 h 28.01579 v 64.21152 h -64.21151 z m 171.23071,97.87914 h -85.61536 v -64.21152 h 64.21152 V 578.31507 H 381.13419 l -12.96217,-25.93289 c -5.20761,-10.41046 -15.68473,-16.87478 -27.31863,-16.87478 -7.61084,0 -14.49101,2.90003 -19.84197,7.51042 -5.35096,-4.61039 -12.23077,-7.51042 -19.84197,-7.51042 -11.63354,0 -22.101,6.4642 -27.32353,16.88946 l -12.95728,25.91821 H 117.67861 v 21.40384 h 107.0192 v 64.21152 h -85.61536 c -41.298402,0 -74.91343,-33.60647 -74.91343,-74.91344 0,-41.30696 33.615028,-74.91343 74.91343,-74.91343 h 363.86527 c 41.2984,0 74.91343,33.60647 74.91343,74.91343 0,41.30697 -33.61503,74.91344 -74.91343,74.91344 z"
     id="path1158"
     style="stroke-width:1.22308" />
  <path
     d="m 502.94894,578.31018 h 21.40384 v 21.40384 h -21.40384 z"
     id="path1160"
     style="stroke-width:1.22308" />
  <path
     d="m 353.12207,235.84876 h 21.40384 v 21.40384 h -21.40384 z"
     id="path1162"
     style="stroke-width:1.22308" />
  <path
     d="m 267.50671,235.84876 h 21.40384 v 21.40384 h -21.40384 z"
     id="path1164"
     style="stroke-width:1.22308" />
  <path
     d="m 321.01631,300.06028 c -11.8055,0 -21.40384,-9.59834 -21.40384,-21.40384 h -21.40384 c 0,23.6066 19.20108,42.80767 42.80768,42.80767 23.6066,0 42.80768,-19.20107 42.80768,-42.80767 h -21.40384 c 0,11.8055 -9.59834,21.40384 -21.40384,21.40384 z"
     id="path1166"
     style="stroke-width:1.22308" />
</svg>
